<?xml version="1.0" encoding="utf-8"?>
<!-- Generator: Adobe Illustrator 22.1.0, SVG Export Plug-In . SVG Version: 6.00 Build 0)  -->
<svg version="1.1" id="Capa_1" xmlns="http://www.w3.org/2000/svg" xmlns:xlink="http://www.w3.org/1999/xlink" x="0px" y="0px"
	 viewBox="0 0 277.4 112.2" style="enable-background:new 0 0 277.4 112.2;" xml:space="preserve">
<style type="text/css">
	.st0{filter:url(#Adobe_OpacityMaskFilter);}
	.st1{fill:#FFFFFF;}
	.st2{mask:url(#c_2_);fill:url(#SVGID_1_);}
	.st3{fill:#2A2E76;}
</style>
<g transform="translate(181.8 19)">
	<defs>
		<filter id="Adobe_OpacityMaskFilter" filterUnits="userSpaceOnUse" x="-181.8" y="-19" width="104.6" height="112.2">
			<feColorMatrix  type="matrix" values="1 0 0 0 0  0 1 0 0 0  0 0 1 0 0  0 0 0 1 0"/>
		</filter>
	</defs>
	<mask maskUnits="userSpaceOnUse" x="-181.8" y="-19" width="104.6" height="112.2" id="c_2_">
		<g class="st0">
			<path id="a_2_" class="st1" d="M-134,82c-0.5,3.5-0.8,7.2-0.8,10.8h3.4c0-3.6-0.1-7.2-0.4-10.8c-0.1-0.9,0.2-3.3-1.2-3.3
				C-134.2,78.7-133.9,81.2-134,82L-134,82z M-124.7,78.1c-0.8,0.6,0,3.5,0.1,4.3c0.6,3.4,1.3,6.9,1.7,10.3h3.2
				c-0.2-3.6-1.8-7.5-2.8-11c-0.2-0.7-0.7-3.8-1.9-3.8C-124.4,77.9-124.6,78-124.7,78.1z M-115.5,75.1c-0.9,0.6,0.4,3.4,1,4.6
				c2,4.3,4.9,8.5,6.2,13.1h4.1c-0.6-1.7-1.7-3.3-2.7-4.8c-1.7-2.9-3.4-5.8-5.1-8.7c-0.9-1.6-2-4.3-3.1-4.3
				C-115.2,74.9-115.4,75-115.5,75.1z M-108.4,71.6c0.7,1.8,2.1,3.4,3.2,5c2.3,3.5,4.7,6.9,7.1,10.3c0.9,1.3,1.7,2.6,2.7,3.9
				c0.4,0.5,0.7,1.4,1.4,1.6c1,0.4,3.1,0.4,4.3,0.4c-1.6-3.1-4.6-6.1-6.8-8.8l-6.6-8.3c-1.3-1.6-2.5-3.4-4-4.8L-108.4,71.6z
				 M-145,81.5c-1,3.7-1.8,7.6-3,11.2h5.3c0.8-6.5,1.7-13,2.6-19.5c0.3-1.9,1.7-5.9-1.2-6C-142.4,72.1-143.8,76.8-145,81.5
				L-145,81.5L-145,81.5z M-133.6,67.4c-0.1,0-0.1,0-0.2,0c-0.2,0.3-0.2,0.5-0.2,0.8c0,2,0,4,0,6.1c0,0.2,0,0.3,0,0.5
				c0.1,0.4,0.6,0.7,1,0.7c0.4,0,0.7-0.4,0.8-0.8c0-0.2,0-0.4,0-0.7c0-1,0-2.1,0-3.1c0-0.9,0-1.9,0-2.8c0-0.5-0.2-0.8-0.7-1
				C-133,67.4-133.3,67.4-133.6,67.4z M-127,66.4c-0.2,0.1-0.5,0.2-0.8,0.3c0.1,0.5,0.2,0.9,0.3,1.3c0.4,2.1,0.9,4.2,1.3,6.3
				c0.1,0.3,0.1,0.5,0.3,0.8c0.1,0.2,0.3,0.3,0.5,0.3c0.8,0.1,1.2-0.4,1.1-1.1c0-0.1,0-0.2-0.1-0.4c-0.4-2.1-0.8-4.1-1.3-6.2
				c-0.1-0.3-0.1-0.6-0.2-0.8c-0.1-0.4-0.5-0.6-0.8-0.6C-126.8,66.3-126.9,66.4-127,66.4z M-102.5,64.9c-0.8,0.7-0.1,1.5,0.4,2
				c1.5,1.6,2.9,3.2,4.4,4.7c5.1,5.3,9.8,10.9,15,16.1c1.6,1.7,3.9,5.3,4.5,5c0.5-0.3,0.8-4.9,0.1-5.6c-1.4-1.5-3.8-3.4-5.3-4.8
				c-4.1-3.8-8-7.9-11.9-11.8c-1.7-1.7-3.4-3.3-5.1-5c-0.4-0.4-0.9-0.9-1.4-0.9C-102,64.7-102.2,64.8-102.5,64.9z M-120.8,64.9
				c0.2,0.8,3.1,7.5,3.6,8.2c0.7-0.1,1.3-0.1,1.8-0.7c-0.2-0.3-0.3-0.6-0.4-0.8c-0.9-1.6-1.8-3.3-2.7-4.9c-0.2-0.4-0.3-0.7-0.5-1.1
				c-0.2-0.4-0.4-0.8-0.8-1.2L-120.8,64.9z M-147.9,64.5c-0.7,0.3-1,1.1-1.3,1.7l-2.2,4.4c-2.4,4.7-4.6,9.5-7,14.2
				c-1.3,2.6-3,5.3-3.8,8h7.8c0.5-3.6,2-7.3,3-10.8c1.7-5.7,3.4-11.5,5.2-17.2c-0.4-0.2-0.9-0.4-1.3-0.4
				C-147.6,64.4-147.8,64.4-147.9,64.5C-147.9,64.5-147.9,64.5-147.9,64.5z M-115.1,61.8c-0.1,0.4,0.2,0.7,0.4,1c1.4,2,2.8,4,4.2,6
				c0.1,0.2,0.2,0.3,0.3,0.5c0.2,0.2,0.4,0.4,0.7,0.3c0.4-0.1,0.7-0.2,1-0.5c-0.1-0.1-0.1-0.2-0.2-0.3c-0.5-0.8-1-1.6-1.6-2.4
				c-1-1.2-1.9-2.4-2.8-3.7c-0.1-0.1-0.2-0.3-0.3-0.5c-0.1-0.4-0.5-0.6-0.8-0.9L-115.1,61.8L-115.1,61.8L-115.1,61.8z M-154.6,62.7
				c-1.4,1.9-2.8,3.8-4.3,5.7c-4.3,5.5-8.4,11.2-12.6,16.7c-1.8,2.4-3.5,5.6-5.9,7.3c1.5,0.6,3.8,0.2,5.5,0.2c0.6,0,1.4,0.1,2-0.2
				c0.7-0.4,1.1-1.4,1.5-2.1c0.8-1.3,1.7-2.6,2.5-3.9c3.3-5,6.5-10.1,9.8-15.1c1.4-2.1,2.8-4.2,4.2-6.4c0.8-1.3,1.2-2.6-0.3-3.5
				c-0.2-0.1-0.4-0.2-0.6-0.2C-153.7,61.3-154.2,62.2-154.6,62.7z M-98.2,60.2c1.6,2.2,4.7,3.8,6.9,5.4c4.5,3.3,8.9,7.2,13.8,9.9
				c0-1.1,0.4-3.1-0.4-4.1c-1.2-1.6-3.9-2.8-5.6-3.9l-8.7-5.8c-1.5-1-3-2.4-4.8-3L-98.2,60.2L-98.2,60.2z M-129.4,58.5
				c-0.2,0.4-0.1,0.7,0,1c0.2,1,0.5,1.9,0.7,2.9c0.1,0.4,0.2,0.9,0.4,1.3c0.1,0.3,0.3,0.4,0.5,0.3c0.3-0.1,0.3-0.3,0.3-0.6
				c0-0.2-0.1-0.3-0.1-0.4l-0.4-1.5c-0.2-0.9-0.4-1.9-0.7-2.8c0-0.1-0.1-0.1-0.1-0.2H-129.4L-129.4,58.5z M-159.4,58.6
				c-2,1.8-4,3.6-6,5.4c-3.8,3.5-7.7,6.9-11.5,10.4c-1.3,1.2-3.5,2.5-4.4,4.1c-0.4,0.8-0.2,1.9-0.2,2.8v5.5c1.2-0.6,1.9-1.6,2.8-2.5
				c1.2-1.4,2.5-2.7,3.7-4.1c4.4-5,8.9-9.9,13.3-14.9c1.5-1.7,3.1-3.2,4.4-5c0.4-0.6,0.8-1.7,0.2-2.3c-0.2-0.2-0.4-0.2-0.6-0.2
				C-158.3,57.6-159,58.3-159.4,58.6L-159.4,58.6z M-110.7,58c0.1,0.2,0.1,0.3,0.2,0.3c2.2,2.1,4.3,4.2,6.5,6.3
				c0.1,0.1,0.2,0.1,0.2,0.1c0.3-0.3,0.7-0.7,1-1c0.2-0.2,0.2-0.5,0-0.7c-0.1-0.1-0.1-0.1-0.2-0.2c-2.1-1.8-4.2-3.5-6.3-5.3
				c-0.1-0.1-0.3-0.2-0.5-0.3L-110.7,58z M-124,57.1c-0.2,0.1-0.3,0.3-0.2,0.5c0.1,0.1,0.1,0.3,0.2,0.4c0.8,1.5,1.6,3.1,2.4,4.6
				c0.1,0.2,0.2,0.3,0.3,0.5c0.3-0.2,0.8-0.2,1.1-0.6c-0.3-0.6-0.6-1.2-1-1.9c-0.3-0.7-0.7-1.3-1-2c-0.3-0.6-0.6-1.3-1.1-1.9
				C-123.6,57-123.8,57-124,57.1L-124,57.1z M-119.1,56.7c0,0.2,0,0.4,0.1,0.4c0.8,1.1,1.6,2.1,2.4,3.2c0.2-0.1,0.4-0.2,0.5-0.3
				c0.2-0.1,0.3-0.3,0.5-0.4c-0.3-0.7-0.8-1.1-1.2-1.6c-0.5-0.5-0.8-1.1-1.4-1.6L-119.1,56.7L-119.1,56.7z M-133.7,56.7
				c-0.1,0.3-0.1,0.6-0.1,0.8c0,1.1,0.1,2.1,0.1,3.2c0,0.6,0,1.1-0.1,1.7c-0.1,0.8,0.1,1.5,0.2,2.3c0,0.1,0,0.1,0.1,0.2
				c0.2,0.1,0.3,0.2,0.5,0.2c0.1,0,0.3-0.2,0.3-0.3c0.1-0.1,0-0.3,0-0.5c-0.1-1.7-0.1-3.3-0.2-5c0-0.8-0.1-1.6-0.1-2.4
				c0-0.2-0.1-0.4-0.1-0.6C-133.5,56.3-133.7,56.5-133.7,56.7z M-129.5,55.8c-0.1,0-0.2,0.1-0.4,0.2c0.1,0.6,0.1,1.2,0.4,1.8
				c0,0.1,0.2,0.2,0.3,0.2c0.1,0,0.2-0.1,0.3-0.2c0.1-0.2,0.2-0.3,0.2-0.5c-0.1-0.4-0.2-0.8-0.3-1.3
				C-129.2,55.8-129.3,55.7-129.5,55.8C-129.4,55.7-129.5,55.7-129.5,55.8L-129.5,55.8z M-138.1,55.8c0,0.1,0,0.3-0.1,0.5
				c-0.1,0.6-0.2,1.3-0.3,1.9c-0.3,1.6-0.6,3.2-0.9,4.8c0,0.2-0.1,0.3,0,0.5c0,0.4,0.4,0.6,0.8,0.3c0.2-0.1,0.4-0.3,0.4-0.5
				c0.2-0.4,0.3-0.7,0.4-1.1c0.2-0.9,0.3-1.8,0.4-2.7c0.1-1.1,0.3-2.2,0.4-3.2c0-0.1,0-0.2,0-0.3c0-0.3-0.2-0.5-0.5-0.6
				c0,0-0.1,0-0.1,0C-137.8,55.3-138,55.5-138.1,55.8z M-125.1,55c0,0.6,0.2,1.3,0.8,1.7l0.6-0.4l-0.8-1.6c-0.1,0-0.1,0-0.2,0
				C-124.9,54.6-125.1,54.7-125.1,55z M-142.8,55c-0.2,0.6-0.5,1.2-0.7,1.8c-0.6,1.4-1.2,2.8-1.8,4.3c-0.4,0.9-0.4,1,0.6,1.3
				c0.1,0,0.1,0,0.2,0c0.1-0.1,0.1-0.2,0.2-0.3c1-2.5,2.1-4.9,3.1-7.4c0.1-0.1,0.1-0.3,0.1-0.4c-0.3-0.2-0.6-0.4-1-0.5
				C-142.4,54.1-142.6,54.5-142.8,55z M-147,53.5c-0.2,0.4-0.5,0.8-0.8,1.1c-0.6,0.9-1.1,1.8-1.6,2.7l-0.8,1.3
				c0.3,0.4,0.6,0.6,1,0.8c0.1-0.1,0.2-0.2,0.3-0.3c1-1.6,2-3.3,3.1-4.9c0.3-0.4,0.2-0.7-0.1-1l0,0h0l0,0l0,0l0,0
				c-0.1-0.1-0.3-0.1-0.4-0.1C-146.6,53.1-146.8,53.3-147,53.5z M-152.3,52.8c-0.2,0-0.4,0.1-0.5,0.2c-0.6,0.5-1.2,1.1-1.7,1.7
				c-0.4,0.4-0.2,0.7,0.3,0.9c0.1,0,0.2,0,0.3,0c0.7-0.7,1.4-1.3,2.1-2c0.1-0.1,0.2-0.3,0.1-0.5C-151.9,52.9-152.1,52.8-152.3,52.8
				L-152.3,52.8L-152.3,52.8z M-163.8,53.2c-1.8,0.9-3.5,2-5.3,3c-2.9,1.7-5.8,3.3-8.7,5c-1,0.6-2.8,1.3-3.4,2.3
				c-0.4,0.6-0.2,1.5-0.2,2.2v4.8c2.7-1.7,5.3-3.9,7.8-5.9c2.8-2.2,5.7-4.3,8.5-6.5c1.3-1,5.3-3,3.4-5.2c-0.2-0.2-0.4-0.3-0.7-0.3
				C-162.9,52.7-163.4,53-163.8,53.2z M-121.9,53.1c0.1,0.2,0.1,0.3,0.2,0.4c0.3,0.4,0.7,0.9,1,1.3c0.3,0.4,0.7,0.8,1.1,1.2
				c0.3,0.3,0.6,0.1,0.7-0.2c0-0.1,0-0.3,0-0.4c-0.1-0.2-0.2-0.4-0.4-0.5c-0.3-0.4-0.7-0.9-1-1.3c-0.2-0.3-0.4-0.5-0.7-0.8
				c-0.1-0.1-0.2-0.1-0.3-0.1L-121.9,53.1L-121.9,53.1z M-107.3,53.6c0.2,0.4,0.5,0.5,0.7,0.7c1.5,1,3.1,2.1,4.6,3.1
				c0.7,0.5,1.4,1,2.1,1.5c0.1,0.1,0.3,0.2,0.4,0.2c0.4-0.2,0.5-0.6,0.6-0.9c0.3-0.5,0.3-0.6-0.2-0.9c-2.4-1.6-4.8-3.1-7.2-4.6
				c-0.1-0.1-0.3-0.1-0.5-0.2L-107.3,53.6z M-94.3,53.6c3.5,2.1,7.5,3.6,11.2,5.3c1.8,0.8,3.6,2,5.5,2.3v-3.4
				c-4.1-1.1-8.2-3-12.1-4.5c-1-0.4-2.1-1-3-1C-93.5,52.1-94.1,52.5-94.3,53.6z M-145.4,51.9c-0.1,0-0.2,0.1-0.3,0.1
				c-0.4,0.3-0.5,0.7-0.2,1.2l0.7-0.1c0.1-0.2,0.2-0.3,0.3-0.5c0-0.1,0.1-0.1,0.1-0.2C-144.8,52.2-145,51.9-145.4,51.9
				C-145.4,51.9-145.4,51.9-145.4,51.9z M-140.7,50.9c-0.2,0.3-0.2,0.6-0.3,1c0.2,0,0.4,0.1,0.7,0.1c0.1-0.3,0.3-0.6,0.4-0.9
				c0.1-0.2-0.1-0.4-0.3-0.5c0,0-0.1,0-0.1,0C-140.5,50.7-140.7,50.8-140.7,50.9L-140.7,50.9z M-110,51.5c0.3,0.2,0.5,0.4,0.7,0.5
				c0.3,0.1,0.5,0,0.7-0.2c0.2-0.3,0.2-0.6-0.2-0.8c-0.2-0.1-0.4-0.2-0.6-0.3C-109.7,50.9-109.9,51.1-110,51.5z M-136.9,50.3
				c-0.1,0.1-0.2,0.1-0.2,0.2c-0.2,0.6-0.3,1.1-0.5,1.7c-0.1,0.2,0,0.4,0.2,0.5c0.4,0.3,0.6,0.2,0.8-0.2c0.3-0.6,0.4-1.3,0.4-2
				c-0.3-0.1-0.5-0.1-0.5-0.1C-136.8,50.2-136.9,50.3-136.9,50.3z M-118.6,49.9c-0.1,0.1-0.2,0.4,0,0.6c0.2,0.3,0.5,0.5,0.8,0.8
				c0.3,0.3,0.7,0.6,1.1,0.9c1.2,1.1,2.3,2.3,3.4,3.4c0.4,0.4,0.8,0.8,1.3,1.3c0.4-0.5,0.4-0.5,0.4-0.7c0-0.2-0.1-0.4-0.3-0.5
				c-0.2-0.2-0.4-0.4-0.6-0.6c-1.7-1.7-3.3-3.3-5-5c-0.1-0.1-0.2-0.2-0.4-0.3c-0.1,0-0.2-0.1-0.2-0.1
				C-118.3,49.7-118.5,49.8-118.6,49.9L-118.6,49.9z M-149.3,49.8c-0.7,0.7-1.5,1.5-2.2,2.2c0,0-0.1,0.1-0.1,0.1
				c0,0.2-0.1,0.4,0,0.5c0.1,0.1,0.2,0.2,0.4,0.3c0.8-0.6,1.3-1.5,2.2-1.9c0.1,0,0.2-0.2,0.3-0.3c0.2-0.3,0.4-0.7,0.6-1
				c-0.1-0.1-0.2-0.2-0.3-0.2c-0.1,0-0.2,0-0.2,0C-149,49.5-149.2,49.6-149.3,49.8z M-133.9,48.6c-0.1,0.2-0.1,0.4-0.1,0.5
				c0,0.6,0,1.2,0,1.8h0c0,0.7,0,1.3,0,2c0,0.2,0,0.4,0.1,0.5c0.1,0.1,0.3,0.3,0.4,0.3c0.1,0,0.3-0.1,0.4-0.3
				c0.1-0.1,0.1-0.4,0.1-0.5c0-1.2-0.1-2.4-0.1-3.6c0-0.2,0-0.4-0.1-0.6c0-0.2-0.1-0.3-0.3-0.3h0C-133.7,48.3-133.9,48.4-133.9,48.6
				L-133.9,48.6z M-153.7,47.7c-1.5,0.9-3,1.8-4.5,2.8c-0.1,0.1-0.2,0.1-0.3,0.2c-0.1,0.1-0.1,0.2-0.1,0.3c0,0.4,0.2,0.7,0.5,0.8
				c0.3,0.1,0.5,0.1,0.8-0.1c0.1-0.1,0.2-0.2,0.3-0.2c1.3-1,2.5-1.9,3.8-2.9c0.2-0.2,0.4-0.4,0.6-0.5c0-0.4-0.2-0.5-0.6-0.7
				C-153.4,47.6-153.6,47.6-153.7,47.7z M-104.6,48.5c1,0.5,2.1,0.9,3.1,1.3c1,0.4,2.1,0.8,3.1,1.3c1,0.4,2,0.9,3,1.2
				c0.4-0.3,0.7-0.6,0.9-1.1c-0.1-0.1-0.2-0.2-0.2-0.2c-2.9-1.2-5.8-2.3-8.8-3.5c-0.1-0.1-0.3-0.1-0.4-0.1
				C-104.3,47.7-104.5,48.1-104.6,48.5z M-169.3,47.4c-2.9,0.9-5.8,1.8-8.7,2.6c-0.9,0.3-2.6,0.4-3.2,1.2c-0.4,0.5-0.2,1.3-0.2,1.9
				v4.6c4.3-2.2,8.5-4.5,12.8-6.7c1.4-0.7,4.2-1.7,2.9-3.8c-0.2-0.4-0.6-0.5-1-0.5C-167.6,46.7-168.7,47.2-169.3,47.4L-169.3,47.4z
				 M-116,47.6c0.2,0.2,0.4,0.3,0.6,0.5c1.3,0.9,2.7,1.8,4,2.6c0.2,0.1,0.4,0.3,0.7,0.3c0.1,0,0.3,0,0.3,0c0.3-0.3,0.3-0.7,0.1-1
				c0,0-0.1-0.1-0.1-0.1c-0.1-0.1-0.2-0.1-0.3-0.2c-1.2-0.7-2.3-1.4-3.4-2.2c-0.4-0.3-0.8-0.5-1.2-0.8L-116,47.6L-116,47.6z
				 M-151.3,46.5c-0.4,0-0.7,0.1-0.8,0.6l0.5,0.5c0.4-0.2,0.7-0.3,0.8-0.6C-150.9,46.8-151,46.5-151.3,46.5L-151.3,46.5L-151.3,46.5
				z M-122.8,46.4c0.1,0.1,0.1,0.1,0.2,0.2l2.3,2h0c0,0,0,0,0.1,0c0.5-0.3,0.6-0.4,0.2-0.8c-0.6-0.5-1.2-1.1-1.8-1.6l-0.7-0.6
				C-123.2,45.8-123.3,46-122.8,46.4z M-131.8,45.1c-0.2,0-0.3,0.2-0.3,0.4c0,0.1,0,0.1,0,0.2c0.4,2.2,0.7,4.3,1.1,6.5
				c0,0.2,0.1,0.3,0.1,0.5c0.1,0.3,0.3,0.4,0.7,0.3c0.3-0.1,0.5-0.3,0.4-0.6c0-0.1,0-0.2-0.1-0.3c-0.4-2.1-0.8-4.2-1.2-6.3
				c0-0.2-0.1-0.4-0.2-0.6c-0.1-0.1-0.2-0.2-0.3-0.2C-131.7,45.1-131.7,45.1-131.8,45.1L-131.8,45.1z M-127.3,45.4
				c1.1,2,2.5,3.6,3.9,5.3l0.5-0.4c-0.1-0.6-0.4-1-0.7-1.4c-0.8-0.9-1.5-1.8-2.1-2.8c-0.1-0.2-0.2-0.3-0.3-0.5
				c-0.2-0.2-0.3-0.4-0.5-0.5c-0.1-0.1-0.2-0.1-0.3-0.1C-126.9,45-127,45.1-127.3,45.4z M-136,45c-0.1,0.3-0.1,0.7-0.2,1
				c-0.5,1.1-0.5,2.3-0.7,3.4c0,0.1,0.1,0.3,0.1,0.3c0.3,0.2,0.7,0.1,0.9-0.2c0-0.1,0.1-0.1,0.1-0.2c0-0.1,0-0.2,0-0.3
				c0.2-1.3,0.3-2.6,0.5-3.9c0.1-0.4-0.1-0.6-0.6-0.8C-135.9,44.7-136,44.9-136,45z M-144.3,44.6c-0.1,0.1-0.2,0.1-0.2,0.2
				c-0.8,0.8-1.5,1.7-2.3,2.5c0,0,0,0.1,0,0.2c0.4,0.4,0.6,0.5,0.9,0.1c0.7-0.7,1.5-1.5,2.2-2.3c0,0,0.1-0.1,0.1-0.1
				c0.2-0.3,0.1-0.7-0.1-0.8c-0.1,0-0.1-0.1-0.2-0.1C-144,44.4-144.2,44.5-144.3,44.6z M-143.4,43.7c-0.1,0.1-0.2,0.3-0.1,0.4
				c0.1,0.2,0.4,0.3,0.5,0.2c0.2-0.1,0.3-0.3,0.4-0.5c0-0.1,0-0.2,0-0.2c-0.1-0.1-0.2-0.1-0.3-0.2C-143,43.5-143.2,43.6-143.4,43.7
				L-143.4,43.7z M-114.4,44.2c0.1,0,0.1,0,0.2,0.1c2.5,1.1,5,2.1,7.5,3.2c0.2,0.1,0.3,0.2,0.5,0.2c0.2,0,0.4,0,0.5-0.1
				c0.2-0.1,0.4-0.3,0.3-0.6c-0.1-0.1-0.1-0.1-0.2-0.2c-2.6-1.1-5.2-2.2-7.9-3.2c-0.3-0.1-0.6-0.2-1-0.3
				C-114.9,43.9-114.9,44-114.4,44.2L-114.4,44.2z M-135.6,43.2c-0.1,0.2-0.2,0.5,0,0.8c0.1,0.1,0.2,0.1,0.3,0.1
				c0.2,0,0.3-0.2,0.4-0.5c0-0.1,0-0.2,0-0.2c-0.1-0.1-0.2-0.3-0.3-0.3h0C-135.4,43-135.6,43.1-135.6,43.2z M-132.1,42.9
				c-0.3,0.1-0.4,0.2-0.3,0.5c0.1,0.4,0.2,0.7,0.3,1.1c0.1,0.2,0.3,0.2,0.5,0.2c0.2,0,0.3-0.2,0.3-0.3c0-0.1,0-0.2,0-0.4
				c0-0.2-0.1-0.5-0.1-0.8c0-0.2-0.2-0.3-0.4-0.3C-132,42.9-132.1,42.9-132.1,42.9L-132.1,42.9z M-90.1,42.9
				c-0.6,0.3-0.5,1.1-0.5,1.7l13.1,2.8c0-0.8,0.3-2.4-0.4-2.9c-0.6-0.5-2.1-0.4-2.8-0.5c-2.1-0.2-4.3-0.5-6.4-0.8
				c-0.6-0.1-1.4-0.3-2.2-0.3C-89.7,42.8-89.9,42.8-90.1,42.9L-90.1,42.9z M-130.7,42.8c-0.2,0.2-0.2,0.4-0.1,0.7
				c0.2,0.5,0.4,0.9,0.6,1.4c1.2,2.5,2.4,5,3.5,7.5c0.1,0.2,0.2,0.4,0.3,0.6c0.1,0.1,0.1,0.1,0.2,0.1c0.9,0,1-0.1,0.6-0.9l-0.2-0.4
				c-1.1-2.4-2.3-4.8-3.4-7.1c-0.3-0.6-0.6-1.1-0.9-1.7c-0.1-0.1-0.2-0.2-0.3-0.2C-130.5,42.7-130.6,42.8-130.7,42.8L-130.7,42.8z
				 M-134,42.8c-0.1,0.2-0.2,0.4-0.2,0.6c0,1.2,0,2.4,0,3.6c0,0.1,0,0.2,0,0.3c0.1,0.3,0.3,0.5,0.6,0.5c0.2,0,0.3-0.2,0.3-0.6
				c0-0.6,0-1.3,0-1.9h-0.1c0-0.6,0-1.2,0-1.8c0-0.2,0-0.4-0.1-0.6c0-0.1-0.2-0.2-0.2-0.2C-133.8,42.6-134,42.7-134,42.8z
				 M-153.9,42.3c-0.5,0.2-1,0.3-1.5,0.5c-0.5,0.2-0.9,0.4-1.4,0.5c-1.4,0.5-2.8,0.9-4.2,1.4c-0.3,0.1-0.6,0.2-0.8,0.3
				c0,0.1-0.1,0.2-0.1,0.3c0,0.1,0,0.2,0,0.3c0.1,0.9,0.3,1,1.1,0.7c1.2-0.5,2.4-1.1,3.7-1.4c1.1-0.3,2.1-0.8,3.2-1.3
				c0.2-0.1,0.3-0.2,0.5-0.3c0-0.2-0.1-0.5-0.1-0.7C-153.5,42.4-153.7,42.3-153.9,42.3C-153.9,42.3-153.9,42.3-153.9,42.3z
				 M-129.2,42.3c0.2,0.4,1,1.7,1.3,2c0.2,0.1,0.3,0.2,0.5,0.1c0.2-0.1,0.2-0.3,0.1-0.5c-0.3-0.5-1.2-1.6-1.7-1.9
				C-129.2,42-129.3,42.2-129.2,42.3z M-117.7,42c0,0.1,0,0.3,0.1,0.4c0.3,0.1,0.6,0.2,0.9,0.2c0.1,0,0.1-0.1,0.2-0.1
				c0-0.1,0-0.2,0-0.2c-0.2-0.4-0.5-0.5-0.9-0.6c0,0,0,0,0,0C-117.6,41.7-117.7,41.8-117.7,42z M-123.7,41.5l-0.2,0.6
				c0.6,0.4,1.1,0.9,1.6,1.3c1.2,0.9,2.3,1.7,3.6,2.4c0.4,0.2,0.6,0.1,0.8-0.2c0.1-0.1,0.1-0.2,0.2-0.4c-1.9-1.3-3.9-2.4-5.8-3.7
				c0,0,0,0,0,0C-123.5,41.5-123.6,41.5-123.7,41.5L-123.7,41.5z M-137.3,41.9c-0.3,0.8-0.9,1.9-1.2,2.7c-0.1,0.3-0.3,0.6-0.3,0.9
				c-0.4,1.2-0.8,2.4-1.2,3.6c-0.1,0.2-0.1,0.4-0.2,0.6c0,0.1,0,0.2,0,0.3c0.1,0.2,0.3,0.4,0.5,0.4c0.2,0.1,0.3-0.1,0.4-0.3
				c0.1-0.2,0.1-0.3,0.2-0.5c0.7-1.9,1.4-3.9,2.1-5.8c0.1-0.4,0.5-1.2,0.6-1.5c0.1-0.4,0-0.7-0.2-0.8c0,0-0.1,0-0.2,0
				C-137,41.5-137.2,41.6-137.3,41.9L-137.3,41.9z M-138.8,41.5c-0.1,0.1-0.2,0.3-0.3,0.4c-1.4,2.1-2.8,4.2-4.2,6.3
				c-0.3,0.4-0.5,0.8-0.8,1.3c0.2,0.1,0.3,0.2,0.4,0.3c0.6,0.3,0.8,0.3,1.1-0.3c1.4-2.3,2.9-4.7,4.3-7c0.1-0.2,0.2-0.3,0.2-0.5
				c0.1-0.2-0.1-0.5-0.3-0.6c0,0-0.1,0-0.1,0C-138.6,41.3-138.7,41.4-138.8,41.5z M-128,41.5c0.3,0.7,1.5,1.6,2,2.1
				c0.5,0.5,1.1,1,1.7,1.5c0.1,0.1,0.2,0.2,0.3,0.3c0.4,0.3,0.7,0.2,0.9-0.3c0.1-0.3-0.1-0.4-0.2-0.6c-0.9-0.8-1.8-1.7-2.6-2.5
				c-0.2-0.2-1.1-0.8-1.3-0.9L-128,41.5z M-100.3,41.2c-0.2,0.3-0.3,0.6-0.2,0.9c0.1,0.3,0.4,0.5,0.8,0.6c0.2,0.1,0.4,0.1,0.5,0.1
				c1.7,0.3,3.3,0.6,5,0.9c0.3,0.1,0.7,0.1,1.1,0c0.2-0.5,0.1-1-0.1-1.5c0-0.1-0.2-0.2-0.3-0.2c-0.1-0.1-0.3-0.1-0.5-0.1
				c-1.8-0.2-3.5-0.5-5.3-0.7c-0.2,0-0.4-0.1-0.6-0.1C-100,41-100.2,41.1-100.3,41.2z M-102.3,41.8c0.2,0.3,0.5,0.4,0.8,0.4
				c0.3,0,0.5-0.3,0.6-0.7c0-0.2-0.1-0.4-0.4-0.4c-0.3-0.1-0.5-0.1-0.9-0.2C-102.3,41.2-102.5,41.5-102.3,41.8z M-132.6,40.4
				c-0.1,0-0.2,0.2-0.2,0.3c0,0.1,0.1,0.2,0.2,0.2c0.1,0,0.2-0.2,0.2-0.2C-132.4,40.5-132.4,40.4-132.6,40.4
				C-132.5,40.4-132.6,40.4-132.6,40.4z M-170.4,40.7c-1.2,0.1-2.4,0.2-3.6,0.3c0-0.1-0.2,0-0.2,0c0,0,0,0,0,0.1
				c-2.4,0.2-4.8,0.5-7.2,0.8v5.3c4-0.8,8-2.2,11.9-3.3c1.2-0.3,3.6-0.9,2.8-2.8c-0.2-0.5-0.8-0.7-1.4-0.7
				C-168.9,40.3-169.9,40.6-170.4,40.7L-170.4,40.7z M-140.1,40.5c-0.7,0.6-1.6,1.6-2.2,2.2c-0.2,0.2-0.1,0.4,0,0.6
				c0.1,0.2,0.3,0.2,0.6,0c0.7-0.7,1.6-1.7,2.3-2.3c0.1-0.1,0.1-0.2,0.2-0.3c-0.2-0.2-0.4-0.3-0.5-0.3
				C-139.9,40.3-140,40.4-140.1,40.5z M-125.8,40.8c0.2,0.4,0.5,0.6,0.9,0.8c0.2,0.1,0.4,0.1,0.5-0.1c0.1-0.2,0.1-0.4-0.1-0.6
				c-0.3-0.3-0.7-0.6-1.2-0.6C-125.9,40.4-125.9,40.6-125.8,40.8z M-147.9,40.1c-0.6,0.2-1.2,0.4-1.8,0.6c-0.6,0.2-1.2,0.4-1.8,0.6
				c0,0.5,0.1,0.7,0.5,0.7c0.2,0,0.4,0,0.6,0c0.9-0.3,1.8-0.7,2.7-1c0.2-0.1,0.3-0.2,0.4-0.3c0.1-0.1,0-0.4-0.1-0.5
				c-0.1,0-0.2,0-0.3,0C-147.8,40-147.9,40-147.9,40.1L-147.9,40.1z M-107.6,39.9c-0.2,0.3-0.3,0.5-0.2,0.8c0.8,0.3,1.7,0.3,2.6,0.5
				c0.2-0.4,0.4-0.7,0-1c-0.4,0-0.8,0-1.2-0.1c-0.3-0.1-0.7-0.2-1-0.2C-107.5,39.8-107.6,39.8-107.6,39.9z M-130.6,39.8
				c-0.2,0.2,0.1,0.6,0.4,0.7c0,0,0.1-0.1,0.1-0.2c0-0.3-0.2-0.4-0.4-0.6c0,0,0,0,0,0C-130.5,39.8-130.6,39.8-130.6,39.8z
				 M-137.2,39.6c-0.1,0-0.1,0.1-0.1,0.2c0,0.1,0,0.3,0.1,0.3c0.1,0,0.4,0.2,0.6-0.2C-136.9,39.7-137.1,39.6-137.2,39.6L-137.2,39.6
				z M-160.5,39.5c-0.8,0.1-1.7,0.2-2.5,0.3c-0.2,0-0.4,0.2-0.4,0.3c-0.1,0.2-0.1,0.4-0.1,0.6c0.2,0.1,0.4,0.3,0.6,0.4
				c0.2,0.1,0.5,0.1,0.7,0c0.3-0.3,0.6-0.2,0.9-0.3c0.4,0,0.7-0.2,1.1-0.3c0.1-0.2,0.1-0.4,0.2-0.5C-160,39.8-160.1,39.5-160.5,39.5
				C-160.5,39.5-160.5,39.5-160.5,39.5L-160.5,39.5z M-134,40.9c0,0.1,0.2,0.2,0.3,0.3c0.1,0,0.2-0.1,0.2-0.2
				c0.1-0.4,0.1-0.7-0.1-1.1c0-0.1-0.2-0.2-0.5-0.4C-134,40.1-134,40.5-134,40.9L-134,40.9z M-141.1,39.5c-0.2,0.1-0.4,0.2-0.6,0.3
				c-0.6,0.4-1.3,0.9-1.9,1.3c-1.3,0.9-2.5,1.9-3.9,2.7c-0.3,0.2-0.7,0.5-1,0.7c-0.1,0.1-0.2,0.2-0.3,0.3c-0.1,0.3,0,0.5,0.4,0.5
				c0.1,0,0.3,0,0.5-0.1c0.4-0.2,0.8-0.4,1.2-0.7c0.8-0.6,1.5-1.2,2.3-1.7c0.9-0.7,1.8-1.3,2.7-1.9c0.4-0.3,0.7-0.5,1-0.8
				c0.2-0.1,0.2-0.4,0.1-0.5c-0.1-0.1-0.2-0.2-0.3-0.2C-141,39.5-141.1,39.5-141.1,39.5z M-131.9,39.3c-0.1,0.1-0.2,0.2-0.2,0.3
				c0,0.1,0,0.3,0.1,0.4c0.1,0.3,0.3,0.7,0.5,1.1c0.2,0,0.3-0.1,0.5-0.1c-0.1-0.6-0.3-1.1-0.6-1.5
				C-131.7,39.4-131.8,39.3-131.9,39.3C-131.9,39.3-131.9,39.3-131.9,39.3z M-134.9,40.5c0.2,0,0.3-0.1,0.3-0.3
				c0.1-0.3,0.2-0.6-0.1-0.9C-135,40-135,40-134.9,40.5z M-113.3,39.2c-0.1,0.3,0.1,0.5,0.5,0.5c0.1,0,0.2,0,0.4,0.1
				c1,0.1,2,0.3,3,0.6c0.1,0,0.3,0.1,0.5,0.1c0.2,0,0.4-0.1,0.6-0.2c0.2-0.2,0.1-0.4-0.1-0.7c-0.8-0.2-1.6-0.4-2.4-0.6
				c-0.6-0.1-1.1-0.2-1.7-0.3c0,0-0.1,0-0.1,0C-113,38.7-113.2,38.9-113.3,39.2z M-155.9,38.6c-0.9,0.1-1.7,0.3-2.6,0.4
				c-0.2,0-0.5,0.1-0.7,0.1c-0.2,0.3-0.2,0.6-0.1,0.9c0.3,0.2,0.6,0.3,0.9,0.3c1-0.2,2-0.3,2.9-0.6c0.2-0.1,0.4-0.2,0.6-0.3
				c-0.1-0.2-0.1-0.3-0.2-0.4c-0.2-0.4-0.3-0.5-0.5-0.5C-155.6,38.6-155.7,38.6-155.9,38.6z M-135.9,38.8c-0.3,0.4-0.4,0.8-0.5,1.3
				c0,0.1,0.1,0.2,0.1,0.2c0.1,0,0.2,0.1,0.3,0c0.1-0.1,0.2-0.1,0.3-0.3c0.2-0.4,0.4-0.8,0.4-1.5C-135.6,38.6-135.8,38.6-135.9,38.8
				z M-125.3,38.5c-0.2,0.5-0.1,0.6,0.2,0.8c0.1,0,0.2,0.1,0.3,0.1c2,0.8,4.1,1.7,6.1,2.5c0.2,0.1,0.3,0.1,0.5,0.1l0.2-0.7
				c-0.2-0.1-0.4-0.2-0.6-0.3c-1.2-0.5-2.4-1-3.6-1.5c-0.7-0.3-1.4-0.6-2.1-0.8c-0.3-0.1-0.5-0.2-0.8-0.2
				C-125.2,38.5-125.3,38.5-125.3,38.5z M-130.3,38.8c0.4,0.5,0.8,0.9,1.1,1.4c0.1,0.2,0.3,0.2,0.5,0c0.1-0.1,0.2-0.3,0.4-0.4
				c-0.4-0.6-0.9-1-1.5-1.3L-130.3,38.8z M-128.4,38.4c-0.1,0-0.2,0.2-0.1,0.3c0.2,0.2,0.4,0.4,0.6,0.5c0.1,0.1,0.4-0.1,0.4-0.3
				c0-0.1,0-0.1-0.1-0.2C-127.8,38.5-128.1,38.4-128.4,38.4L-128.4,38.4z M-132.5,38.6c0.1,0.1,0.2,0.1,0.2,0.2
				c0-0.1,0.1-0.2,0.1-0.3c0,0-0.1-0.1-0.2-0.1C-132.5,38.4-132.6,38.5-132.5,38.6z M-137.6,38.2c-0.3,0.3-0.7,0.7-0.9,1.1
				c0.3,0.3,0.5,0.2,0.7,0c0.3-0.3,0.5-0.6,0.8-0.9c-0.1-0.2-0.3-0.3-0.4-0.3C-137.5,38.1-137.5,38.1-137.6,38.2z M-138.8,38.4
				c0,0,0.1,0.1,0.2,0.2c0-0.1,0.4-0.3,0.3-0.4c0,0-0.1-0.1-0.1-0.2c0,0,0,0,0,0C-138.7,38.1-138.9,38.3-138.8,38.4z M-142.6,38.1
				c-0.3,0.1-0.6,0.3-1,0.4c-0.9,0.3-1.8,0.6-2.7,0.9c-0.2,0.1-0.4,0.2-0.5,0.4c0,0.2,0,0.4,0.1,0.6c1.4-0.2,2.6-0.9,3.9-1.3
				c0.3-0.1,0.7-0.2,0.9-0.5c-0.2-0.4-0.2-0.5-0.4-0.5C-142.4,38-142.5,38.1-142.6,38.1L-142.6,38.1z M-134,38.9
				c0,0.1,0.1,0.2,0.2,0.2c0.1,0,0.3-0.1,0.3-0.2c0.1-0.2,0.1-0.4,0.1-0.6c0-0.1-0.1-0.3-0.1-0.3c-0.1-0.1-0.3-0.1-0.5-0.1
				C-134,38.3-134,38.6-134,38.9L-134,38.9z M-135.4,37.9c0,0,0.1,0.2,0.1,0.2c0.1,0,0.1-0.1,0.2-0.1l-0.1-0.2
				C-135.3,37.8-135.4,37.9-135.4,37.9L-135.4,37.9z M-128.5,37.3c0,0.2,0,0.3,0.2,0.4c0.3,0.1,0.7,0.3,1,0.3c0.1,0,0.2-0.1,0.4-0.2
				c-0.1-0.1-0.1-0.3-0.2-0.3c-0.3-0.2-0.7-0.3-1-0.5c0,0,0,0-0.1,0C-128.3,37-128.4,37.2-128.5,37.3L-128.5,37.3z M-148.1,37.2
				c-1,0.1-2.1,0.2-3.1,0.4c-0.3,0.1-0.7,0.1-1,0.2c-0.2,0.1-0.3,0.3-0.2,0.6c0.1,0.2,0.2,0.3,0.4,0.3c0.1,0,0.2,0,0.3,0
				c0.8-0.2,1.7-0.2,2.6-0.5c0.8-0.2,1.6-0.3,2.4-0.3c0.5-0.1,0.6-0.2,0.4-0.8c-0.1,0-0.2,0-0.3,0C-147.2,37-147.7,37.2-148.1,37.2z
				 M-136.3,37c-0.2,0.2-0.4,0.4-0.5,0.6c-0.1,0.1,0,0.3,0.1,0.5c0.4-0.3,0.7-0.5,0.8-0.8c0-0.1,0-0.2-0.1-0.3c0,0-0.1,0-0.1,0
				C-136.2,37-136.2,37-136.3,37L-136.3,37z M-138.6,37c-0.5,0.1-0.9,0.2-1.3,0.3c-0.1,0-0.1,0.1-0.2,0.3c0.1,0.1,0.3,0.3,0.4,0.3
				c0.5,0,0.9-0.2,1.3-0.5c0.1,0,0.1-0.2,0.1-0.3C-138.5,37.1-138.6,37-138.6,37L-138.6,37z M-131.7,37.5c0.3,0.3,0.6,0.5,0.9,0.8
				c0.3-0.3,0.4-0.4,0.2-0.6c-0.2-0.3-0.5-0.6-0.9-0.8C-131.8,37.2-131.8,37.3-131.7,37.5L-131.7,37.5z M-137.4,36.6
				c0,0.1,0.1,0.2,0.1,0.2c0.1,0,0.1-0.1,0.2-0.1c-0.1-0.1-0.1-0.2-0.1-0.2c0,0,0,0-0.1,0C-137.3,36.4-137.4,36.5-137.4,36.6z
				 M-142.8,36.3c-0.4,0-1.7,0.3-2.1,0.3c0,0-0.1,0-0.1,0c-0.1,0-0.2,0.1-0.2,0.1c-0.1,0.2-0.2,0.3-0.2,0.5c0,0.1,0.3,0.2,0.4,0.3
				c0.5-0.1,1.8-0.4,2.3-0.5c0.1,0,0.1-0.1,0.2-0.1c0.1-0.1,0.2-0.2,0.2-0.4C-142.5,36.4-142.7,36.3-142.8,36.3L-142.8,36.3z
				 M-125.3,36.8c0,0.3,0.1,0.4,0.4,0.5c0.5,0.1,1.8,0.3,2.3,0.4c1,0.1,2.1,0.1,3.1,0.5c0.1,0,0.2,0,0.4,0.1
				c0.6,0.1,1.2,0.2,1.7,0.3c0.5,0.1,1,0.2,1.5,0.2c0.2-0.2,0.4-0.5,0.2-0.7c-0.1-0.2-0.3-0.3-0.5-0.3c-0.6-0.2-1.2-0.3-1.8-0.4
				c-1.5-0.3-3-0.5-4.5-0.7c-0.5-0.1-1.7-0.3-2.2-0.3c0,0-0.1,0-0.1,0C-125.1,36.3-125.2,36.5-125.3,36.8z M-130.6,36.4
				c0,0.1,0,0.3,0,0.3c0.3,0.3,0.8,0.4,1.2,0.6c0.2,0,0.3-0.1,0.4-0.4c0,0,0-0.2-0.1-0.2c-0.5-0.2-0.9-0.3-1.4-0.5
				C-130.5,36.3-130.6,36.4-130.6,36.4L-130.6,36.4z M-140.5,36.3c0,0.2,0.1,0.4,0.3,0.4c0.1,0,0.2-0.1,0.4-0.2
				c0.1-0.3-0.2-0.3-0.3-0.4c0,0-0.1,0-0.1,0C-140.4,36.1-140.5,36.2-140.5,36.3z M-127.7,36c-0.1,0-0.2,0.3-0.1,0.4
				c0.2,0.3,0.7,0.4,1,0.2c0.1-0.1,0.1-0.2,0.1-0.3c0-0.1-0.1-0.2-0.2-0.2c-0.2-0.1-0.4-0.1-0.6-0.1C-127.5,36-127.6,36-127.7,36z
				 M-137.5,34.8c-0.1,0-0.1,0.1-0.2,0.1c0.1,0.4,0.4,0.4,0.7,0.4c0.1,0,0.2,0,0.2,0c0.2-0.2,0.3-0.4,0-0.6
				C-137,34.7-137.3,34.7-137.5,34.8z M-131,34.8c-0.1,0.1-0.2,0.2-0.2,0.3c0,0.1,0.1,0.2,0.2,0.2c0.4,0,0.7,0,1.1,0
				c0.2-0.5,0.2-0.6-0.2-0.7c-0.1,0-0.2,0-0.4,0C-130.6,34.6-130.8,34.7-131,34.8z M-141.3,34.7c-0.1,0-0.2,0.2-0.2,0.3
				c0,0.1,0.1,0.2,0.2,0.3c0.1,0,0.2,0,0.3,0h0.1c0.3,0,0.6,0,0.8,0v0c0.4,0,0.7,0,1.1,0c0.1,0,0.2-0.2,0.3-0.3
				c0-0.1-0.1-0.2-0.2-0.3c-0.2-0.1-0.9-0.2-1.4-0.2C-140.7,34.5-141.1,34.6-141.3,34.7z M-144.6,34.5c-2.8,0-5.5,0-8.3,0.1h0
				c-0.1,0-0.2,0-0.2,0c-0.2,0-0.4,0.3-0.4,0.6c0,0.2,0.2,0.3,0.4,0.3c0.2,0,0.5,0,0.7,0c0.8,0,1.7-0.1,2.5-0.1c0.6,0,1.1,0,1.7,0
				c1.2,0,2.5,0,3.7,0c0.1,0,0.2,0,0.3,0c0.3,0,0.6,0,0.8-0.1c0-0.6,0-0.6-0.5-0.6C-144.1,34.5-144.4,34.5-144.6,34.5L-144.6,34.5
				L-144.6,34.5z M-128.3,34.5c-0.4,0-0.5,0.1-0.5,0.8l2.1,0c0,0,0.1,0,0.1,0c0.1-0.1,0.2-0.2,0.2-0.3c0-0.1,0-0.2-0.1-0.3
				c0-0.1-0.2-0.1-0.2-0.1c-0.5,0-0.9-0.1-1.4-0.1L-128.3,34.5z M-124.8,34.6l-0.1,0.7c0.3,0.1,0.5,0,0.8,0c0.1,0,0.3,0,0.4,0
				c1,0,1.9,0,2.9,0c0.4,0,0.5-0.1,0.5-0.6c0-0.1-0.1-0.2-0.1-0.4C-122,34.4-123.4,34.3-124.8,34.6
				C-124.8,34.6-124.8,34.6-124.8,34.6z M-119.8,34.7c0,0.1,0,0.2,0,0.4c0.8,0,1.6,0,2.3,0c0.4,0,0.9,0.1,1.3,0.1
				c0.2,0,0.4-0.2,0.4-0.5c0-0.2-0.2-0.3-0.4-0.3c-0.1,0-0.2,0-0.2,0c0,0-0.1,0-0.1,0l-2.8-0.1h0C-119.6,34.3-119.7,34.4-119.8,34.7
				L-119.8,34.7z M-113.7,34.5c0,0.2,0,0.5,0.1,0.7c0.1,0.2,0.3,0.3,0.5,0.3c0.1,0,0.2,0,0.3,0c2.8,0,5.7,0.1,8.5,0.1
				c0.2,0,0.3-0.1,0.5-0.1c0.1-0.6,0.1-0.6-0.1-1c-0.2,0-0.4-0.1-0.6-0.1c-1.2,0-2.3,0-3.5,0C-110.6,34.3-113,34.3-113.7,34.5
				L-113.7,34.5L-113.7,34.5z M-165.1,34.1c-0.1,0.3-0.3,0.7-0.2,1c0.3,0.4,0.7,0.5,1.2,0.5c2.7,0,5.3,0,8,0c0.2,0,0.4,0,0.5-0.1
				c0.1-0.4,0.2-0.7,0.1-1c-0.3-0.2-0.7-0.2-1-0.2c-0.9,0-1.9,0-2.8-0.1c-1.6-0.1-3.1-0.1-4.6-0.2c-0.2,0-0.4,0-0.6,0
				C-164.8,34-164.9,34-165.1,34.1z M-93.6,33.9c-2,0.1-4.1,0.2-6.1,0.3c-0.7,0-1.5,0.1-2.1,0.1c-0.3,0.3-0.3,0.6-0.2,0.9
				c0.1,0.2,0.4,0.2,0.7,0.2h0.1l0,0c2.7,0.1,5.3,0.2,8,0.3c0.4,0,0.7,0.1,1.1-0.1c0.2-0.4,0.2-0.8,0.1-1.2
				c-0.4-0.5-0.9-0.6-1.4-0.6C-93.5,33.9-93.5,33.9-93.6,33.9C-93.6,33.9-93.6,33.9-93.6,33.9z M-90.9,34.3v1.8l13.3,0.2v-2.5
				C-82,33.8-86.5,34.3-90.9,34.3L-90.9,34.3z M-127.4,33.5c-0.2,0-0.3,0.1-0.4,0.2c0,0.1,0,0.1,0,0.1c0.2,0.2,0.4,0.2,0.6,0.1
				c0.1,0,0.2-0.1,0.3-0.2c0,0,0-0.1,0-0.1C-127.1,33.6-127.3,33.5-127.4,33.5L-127.4,33.5L-127.4,33.5z M-137.4,33.6
				c0,0-0.3,0.3,0.1,0.4c0.1,0,0.3-0.1,0.3-0.1c0-0.1-0.1-0.4-0.1-0.5C-137.2,33.5-137.4,33.5-137.4,33.6z M-141.7,33.3
				c0,0.1,0,0.3,0.1,0.3c0.2,0.2,0.5,0.1,0.7,0c-0.1-0.4-0.4-0.4-0.6-0.4h0C-141.5,33.2-141.7,33.3-141.7,33.3L-141.7,33.3z
				 M-181.4,37.5c2.4,0,5-0.1,7.5-0.4c0.2,0.1,0.4,0.1,0.7,0.2c-0.2-0.1-0.3-0.1-0.5-0.2c0.6-0.1,1.1-0.1,1.7-0.2c0.3,0,0.6,0,0.9,0
				c0.8,0,1.7,0,2.2-0.4c0.9-0.7,0.7-1.9,0.5-2.8c-4.4,0-8.7-0.5-13.1-0.5L-181.4,37.5L-181.4,37.5z M-129.8,33.1
				c-0.4,0.1-0.8,0.3-1.1,0.7c0.2,0.1,0.4,0.3,0.5,0.3c0.4-0.1,0.9-0.2,1.2-0.6c-0.1-0.3-0.2-0.4-0.4-0.4
				C-129.7,33.1-129.7,33.1-129.8,33.1L-129.8,33.1z M-128.4,32.6c-0.2,0-0.4,0.1-0.3,0.3c0,0.1,0.2,0.2,0.3,0.3
				c0.2-0.1,0.3-0.1,0.4-0.2c0,0,0.1-0.2,0.1-0.2c0-0.1-0.2-0.2-0.3-0.2C-128.3,32.6-128.4,32.6-128.4,32.6L-128.4,32.6z M-132,33
				c0,0.1,0,0.2,0.1,0.2c0,0,0.1,0.1,0.2,0.1c0.2-0.1,0.4-0.3,0.5-0.5c0.1-0.1,0-0.3-0.1-0.5C-131.8,32.5-131.9,32.8-132,33L-132,33
				z M-136.7,32c-0.1,0-0.2,0.1-0.3,0.2c0,0.1,0,0.2,0,0.3c0.2,0.4,0.6,0.6,1,0.8c0.2,0.1,0.4-0.1,0.4-0.3
				C-135.6,32.6-136.3,32-136.7,32L-136.7,32L-136.7,32z M-147.5,32c-0.2,0-0.3,0.1-0.3,0.3c0,0.1,0.1,0.3,0.2,0.4
				c0.1,0.1,0.3,0.2,0.5,0.2c0.7,0.2,1.4,0.3,2.2,0.3c0.1,0,0.1-0.1,0.2-0.1l0-0.5L-147.5,32C-147.4,32-147.4,32-147.5,32
				C-147.4,32-147.5,32-147.5,32z M-129.5,32.2c0,0.1,0.2,0.1,0.2,0.1c0.1,0,0.2-0.1,0.3-0.2c-0.1-0.1-0.2-0.2-0.3-0.2c0,0,0,0,0,0
				C-129.5,31.9-129.6,32.1-129.5,32.2z M-118.5,31.6c-0.2,0-0.5,0.1-0.7,0.1c-0.4,0-0.7,0.1-1.1,0.1c-0.3,0-0.6,0-0.9,0.1
				c-0.3,0.1-0.5,0.2-0.8,0.2c-1.1,0-2,0.4-2.9,0.7c0,0-0.1,0.1-0.2,0.2c0.2,0.5,0.5,0.6,0.9,0.5c0.9-0.1,1.7-0.2,2.6-0.3
				c0.8-0.1,1.5-0.3,2.3-0.4c0.3-0.1,0.7-0.1,1-0.2c0.3,0,0.4-0.2,0.4-0.5C-118,31.8-118.1,31.6-118.5,31.6L-118.5,31.6L-118.5,31.6
				z M-135.2,31.5c-0.1,0-0.2,0.3-0.3,0.4c0.1,0,0.4,0.2,0.4,0.2c0-0.1,0.1-0.4,0.1-0.4C-134.9,31.7-135.2,31.5-135.2,31.5
				L-135.2,31.5z M-117.6,31.7c-0.1,0.2,0,0.5,0.2,0.5c0.3,0,0.5,0,0.8-0.2c0-0.1,0-0.2-0.1-0.3c-0.1-0.1-0.3-0.2-0.4-0.2
				C-117.3,31.5-117.5,31.6-117.6,31.7z M-127,32.1c0.2,0.5,0.3,0.6,0.6,0.5c0.4-0.1,0.8-0.3,1.2-0.5c0,0,0.1-0.1,0.1-0.2
				c-0.1-0.1-0.2-0.3-0.3-0.5C-125.8,31.5-126.8,31.8-127,32.1z M-130.7,31.4c-0.2,0.2-0.4,0.3-0.3,0.6c0,0.1,0.1,0.2,0.2,0.2
				c0.1,0,0.3,0,0.3,0c0.2-0.2,0.3-0.4,0.4-0.6c-0.1-0.2-0.3-0.2-0.4-0.2C-130.6,31.3-130.7,31.4-130.7,31.4L-130.7,31.4z
				 M-133.8,31.3c-0.1,0-0.2,0.1-0.2,0.2c-0.1,0.3-0.1,0.6,0.1,1c0.4-0.4,0.5-0.8,0.3-1.1C-133.6,31.3-133.7,31.3-133.8,31.3
				C-133.7,31.3-133.8,31.3-133.8,31.3L-133.8,31.3z M-142.2,31.3c0.1,0.8,0.2,0.9,0.8,1.2c1,0.4,2,0.7,2.9,1.1c0,0,0.1,0,0.1,0h0.1
				c0.2-0.1,0.4-0.2,0.2-0.6c-1.3-0.6-2.5-1.2-3.8-1.8c0,0,0,0-0.1,0C-142,31.2-142.1,31.2-142.2,31.3z M-132.9,32.1
				c-0.1,0.2,0,0.3,0.3,0.3c0.2-0.2,0.3-0.5,0.5-0.7c0.1-0.2,0-0.4-0.4-0.6C-132.7,31.5-132.8,31.8-132.9,32.1z M-131.6,31.3
				l0.1,0.1c0.1,0,0.2-0.2,0.3-0.2l-0.1-0.2C-131.4,31-131.5,31.2-131.6,31.3z M-152.7,30.8c-0.2,0.3-0.2,0.5,0,0.9
				c0.1,0.1,0.3,0.1,0.5,0.2c0.4,0.1,0.8,0.1,1.2,0.2c0.7,0.1,1.3,0.2,2,0.4c0.1,0,0.3,0,0.4,0c0.1,0,0.2-0.1,0.2-0.3
				c0-0.1-0.1-0.2-0.1-0.3c0-0.1-0.2-0.1-0.2-0.1c-1.1-0.3-2.3-0.6-3.4-0.9c-0.1,0-0.1,0-0.2,0C-152.5,30.8-152.6,30.8-152.7,30.8
				L-152.7,30.8z M-141.5,30.4c0.3,0.2,0.7,0.4,1,0.6c0.1,0,0.2,0,0.3,0c-0.1-0.8-0.8-0.8-1.2-1.2
				C-141.7,30.1-141.7,30.3-141.5,30.4z M-139.3,29.6c-0.1,0.1-0.2,0.3-0.1,0.3c0.1,0.2,0.3,0.5,0.5,0.7c0.4,0.4,0.9,0.8,1.4,1.2
				c0,0,0.1,0,0.2,0l0.3-0.5c-0.6-0.7-1.2-1.2-1.8-1.8c0,0-0.1-0.1-0.2-0.1c0,0-0.1,0-0.1,0C-139.2,29.6-139.3,29.6-139.3,29.6z
				 M-161.2,30.1c0,0.4,0.2,0.6,0.6,0.7c0.3,0.1,0.7,0.1,1,0.2l2.9,0.4c0.4,0,0.7-0.2,0.8-0.7c0-0.3-0.1-0.5-0.6-0.6
				c-1.3-0.3-2.5-0.5-3.8-0.8c-0.1,0-0.2,0-0.3,0C-161,29.3-161.2,29.5-161.2,30.1L-161.2,30.1z M-164.1,29.1
				c-0.1,0.2-0.1,0.4-0.1,0.6c0,0.3,0.2,0.5,0.4,0.5c0.4,0.1,0.9,0.1,1.2,0.1c0.2,0,0.3,0,0.4,0c0.4,0,0.6-0.2,0.6-0.6
				c0-0.4-0.1-0.6-0.5-0.7c-0.5-0.1-1.1-0.2-1.6-0.3C-163.9,28.8-164.1,28.9-164.1,29.1z M-105.8,28.8c-0.7,0.1-1.4,0.2-2,0.5
				c-0.3,0.2-0.7,0.3-1,0.4c-0.5,0.1-1,0.2-1.5,0.3c-0.4,0.1-0.8,0.2-1.2,0.3c-1,0.1-1.9,0.4-2.8,0.6c-0.4,0.1-0.5,0.3-0.3,0.8
				c0,0.1,0.1,0.1,0.2,0.3c0.2,0,0.4,0,0.5,0c3.8-0.7,7.7-1.6,8.5-2c0-0.3,0-0.5,0-0.8C-105.4,28.9-105.5,28.8-105.8,28.8
				C-105.7,28.8-105.7,28.8-105.8,28.8z M-149.1,28.8c-0.1,0.2,0.1,0.3,0.3,0.4c1.4,0.6,3.6,1.5,5.1,2.1c0.3-0.7,0.3-0.7-0.1-0.8
				c-0.8-0.3-2.2-1.2-3.1-1.3c-0.1,0-0.2-0.1-0.3-0.2c-0.4-0.2-0.8-0.3-1.2-0.5c-0.1,0-0.1,0-0.2,0
				C-148.9,28.4-149.1,28.5-149.1,28.8L-149.1,28.8z M-119.4,28.3c-0.2,0.1-0.4,0.2-0.7,0.3c-1.2,0.7-2.5,1.4-3.7,2.1
				c-0.4,0.2-0.7,0.5-0.9,0.8c0,0.1,0.1,0.2,0.1,0.2c0.1,0.1,0.3,0.1,0.4,0.2l3.7-1.7c0.6-0.3,1.3-0.6,1.9-0.9
				c0.4-0.2,0.5-0.6,0.1-0.9c-0.2-0.1-0.3-0.2-0.5-0.2C-119.2,28.2-119.3,28.2-119.4,28.3z M-127.4,28.4c-0.3,0.3-0.6,0.6-0.9,0.9
				c-0.3,0.3-1.1,0.9-1.3,1.3c0.3,0.4,0.5,0.4,0.7,0.2c0.6-0.6,1.8-1.7,2.4-2.4c0.1-0.1,0.2-0.2,0.2-0.4c0-0.1,0-0.2,0-0.4
				C-127,27.7-127.1,28.1-127.4,28.4z M-141.2,28.5c0.3,0.3,0.7,0.5,1.1,0.8c0.1-0.1,0.3-0.2,0.3-0.3c0-0.1,0-0.3-0.1-0.3
				c-0.4-0.4-0.8-0.9-1.3-1.2C-141.6,28-141.6,28.3-141.2,28.5L-141.2,28.5z M-152.6,27.4c0,0.3,0.2,0.5,0.4,0.6
				c0.7,0.3,1.4,0.5,2,0.8c0.5-0.4,0.5-0.6,0.1-0.8c-0.7-0.3-1.4-0.5-2-0.9c-0.1,0-0.1,0-0.2,0C-152.4,27-152.6,27.1-152.6,27.4z
				 M-98.9,27c-0.9,0.3-1.8,0.5-2.8,0.8c-0.4,0.1-0.8,0.3-1.2,0.5c0,0.3,0,0.5,0,0.8c0.7,0.1,0.8,0.1,1.2-0.1
				c0.7-0.3,1.4-0.5,2.1-0.6c0.5-0.1,1.1-0.3,1.7-0.4c-0.1-0.7-0.2-1-0.5-1C-98.5,26.9-98.7,27-98.9,27z M-125.8,26.8
				c-0.1,0.1-0.3,0.2-0.1,0.4c0.1,0.1,0.2,0.2,0.3,0.2c0.2,0,0.2-0.2,0.2-0.4c0-0.1-0.1-0.2-0.1-0.3
				C-125.6,26.8-125.7,26.8-125.8,26.8L-125.8,26.8z M-123.7,27.5c-1.1,0.8-2.1,1.5-3.2,2.3c-0.2,0.1-0.4,0.3-0.6,0.5
				c-0.1,0.1-0.1,0.4,0.1,0.5c0.2,0.1,0.4,0.2,0.6,0c0.2-0.1,0.4-0.2,0.6-0.4c0.9-0.8,1.9-1.4,2.8-2.1c0.4-0.3,0.8-0.6,1.1-1.1
				l-0.3-0.6C-122.8,27-123.3,27.3-123.7,27.5L-123.7,27.5z M-139.9,26c-0.1,0.1-0.1,0.3-0.1,0.4c0.1,0.1,0.1,0.2,0.2,0.3
				c0.5,0.7,1,1.4,1.5,2.1c0.1,0.1,0.2,0.3,0.4,0.4c0.1-0.4,0-0.6-0.2-0.9c-0.4-0.6-0.7-1.2-1.1-1.8c-0.1-0.2-0.2-0.3-0.3-0.5
				c-0.1-0.1-0.2-0.2-0.3-0.2C-139.8,25.9-139.9,25.9-139.9,26z M-121.2,25.8c-0.2,0.1-0.3,0.2-0.5,0.4c-0.2,0.2-0.2,0.5,0,0.6
				c0.2,0.1,0.3,0,0.5-0.1c0.3-0.1,0.5-0.3,0.5-0.7c0,0-0.1-0.2-0.1-0.2C-121,25.8-121.1,25.8-121.2,25.8
				C-121.2,25.8-121.2,25.8-121.2,25.8L-121.2,25.8z M-134,25.8c-0.1,0-0.2,0.2-0.2,0.3c0,0.3,0,0.7,0,1c0,0.7,0.1,1.4,0.1,2.1
				c0,0.4,0.1,0.7,0.2,1c0,0.1,0.1,0.1,0.3,0.2c0.2-0.4,0.2-0.7,0.1-1.1c-0.1-0.9-0.1-1.7-0.2-2.6c0-0.2,0-0.4,0-0.6
				C-133.8,25.9-133.8,25.8-134,25.8C-134,25.8-134,25.8-134,25.8z M-95.5,26c-0.4,0.1-0.9,0.2-1.3,0.4c-0.2,0.1-0.3,0.2-0.4,0.3
				c0,0.4,0.1,0.7,0.3,0.9c0.9,0,2.3-0.4,2.9-0.7c0-0.4,0-0.8-0.3-1.1L-95.5,26z M-123.4,24.3c-0.7,0.5-1.2,1.2-1.8,1.9
				c0,0,0,0.1,0,0.1c0,0.1,0,0.1,0,0.2c0.1,0.1,0.2,0.1,0.2,0.1c0.1,0,0.2,0,0.2-0.1c0.5-0.5,1-1.1,1.5-1.6c0.1-0.1,0.1-0.2,0.1-0.3
				c-0.1-0.1-0.1-0.2-0.1-0.2C-123.2,24.3-123.3,24.2-123.4,24.3C-123.3,24.2-123.4,24.3-123.4,24.3z M-181.2,27.9
				c0.5,0.7,2.2,0.6,3,0.8c2.4,0.4,4.7,0.9,7.1,1.3c0.9,0.1,2.1,0.5,2.9-0.2c0.6-0.5,0.8-1.8,0-2.3c-1-0.7-2.9-0.8-4.1-1.1
				c-1.2-0.3-2.4-0.6-3.7-0.8c-1.8-0.5-3.7-1-5.5-1.4C-181.4,25.2-181.8,27.2-181.2,27.9z M-138.6,23.9c-0.1,0.1-0.2,0.2-0.3,0.3
				c0,0.1,0,0.2,0,0.3c0.3,0.7,0.8,1.8,1.1,2.5c0.5,1.2,1.1,2.3,1.5,3.5c0,0.1,0.1,0.3,0.2,0.4c0.1,0.1,0.3,0.2,0.4,0.1
				c0.1,0,0.2-0.2,0.3-0.3c-0.1-0.4-0.2-0.7-0.3-1c-0.6-1.5-1.4-3.4-2.1-4.9c-0.1-0.3-0.3-0.6-0.5-0.9
				C-138.3,23.9-138.4,23.9-138.6,23.9C-138.5,23.9-138.6,23.9-138.6,23.9L-138.6,23.9z M-127,24.1c-0.9,1.5-1.9,2.9-2.8,4.4
				c-0.1,0.2-0.7,1.1-0.8,1.4c0,0.1,0,0.3,0.1,0.3c0.1,0.1,0.8-0.7,0.9-0.8c0.2-0.2,0.3-0.4,0.5-0.7c0.2-0.4,0.5-0.7,0.7-1.1
				c0.5-0.7,1.1-1.4,1.6-2.2c0.3-0.5,0.7-0.9,0.8-1.6c-0.2-0.1-0.4-0.2-0.5-0.2h0C-126.8,23.8-126.9,23.9-127,24.1L-127,24.1z
				 M-132.2,23.4c-0.1,0.2-0.1,0.4-0.2,0.6c-0.3,1.6-0.4,3.2-0.5,4.8c0,0.1,0,0.2,0,0.4c0.1,0,0.2-0.1,0.3-0.1
				c0.1-0.2,0.2-0.5,0.2-0.7c0.3-1.4,0.5-2.9,0.8-4.3c0-0.2,0-0.3,0-0.5c0-0.1,0-0.1-0.1-0.2c-0.1-0.1-0.2-0.1-0.3-0.2c0,0,0,0,0,0
				C-132,23.3-132.2,23.4-132.2,23.4z M-151.8,23.5c0,0,0,0.1,0,0.3c0.1,0.2,0.3,0.4,0.5,0.5c0.9,0.6,1.9,1.2,2.8,1.8
				c1.2,0.7,2.4,1.5,3.6,2.2c0.2,0.1,0.5,0.3,0.7,0.4l0.5-0.6c-0.4-0.3-0.8-0.7-1.2-0.9c-1.1-0.6-2-1.4-3-2c-1-0.6-1.9-1.3-2.9-2
				c-0.2-0.1-0.3-0.2-0.5-0.2C-151.5,23-151.7,23.2-151.8,23.5z M-125.9,22.6c-0.1,0-0.2,0.1-0.2,0.2c-0.1,0.2,0.1,0.4,0.3,0.5
				c0.2,0.1,0.4,0,0.5-0.2c0,0,0-0.1,0-0.1C-125.3,22.8-125.6,22.6-125.9,22.6C-125.9,22.6-125.9,22.6-125.9,22.6z M-109,22.9
				c-0.3,0.1-0.6,0.3-0.9,0.4c-1,0.5-2,0.9-3,1.5c-0.8,0.5-1.6,0.9-2.3,1.4c-0.5,0.3-1.1,0.7-1.6,1.1l0.3,0.9c0.1,0,0.1,0,0.2,0
				c0.1,0,0.2,0,0.3-0.1c2.8-1.4,5.7-2.9,8.5-4.3c0,0,0,0,0.1-0.1c0,0,0-0.1,0-0.1c0-0.4-0.2-0.7-0.6-1
				C-108.4,22.7-108.7,22.8-109,22.9L-109,22.9z M-163.3,22.6c-0.1,0.5,0.2,1.1,0.7,1.4c0.1,0.1,0.2,0.1,0.3,0.1c2,0.8,4,1.6,6,2.4
				c0.2,0.1,0.3,0.1,0.5,0.2c0.1,0,0.3,0,0.4,0c0.3-0.1,0.4-0.4,0.4-0.7c0-0.3-0.2-0.4-0.4-0.5c-0.1-0.1-0.2-0.1-0.3-0.2
				c-2.2-0.9-4.4-1.9-6.6-2.8c-0.2-0.1-0.4-0.1-0.7-0.2C-163,22.3-163.2,22.4-163.3,22.6z M-146.8,22.3c-0.3,0.1-0.4,0.4-0.1,0.7
				c0.5,0.4,0.9,0.8,1.4,1.3c0.5,0.5,0.9,1,1.4,1.5c0.2,0.3,1,1,1.4,1.1c0.3-0.4,0.3-0.7,0-1c-0.9-0.9-2.4-2.4-3.3-3.4
				c-0.1-0.2-0.3-0.2-0.4-0.2C-146.6,22.2-146.7,22.2-146.8,22.3z M-136.4,22.1c-0.2,0-0.3,0.2-0.3,0.4c0,0.1,0,0.1,0,0.2
				c0.4,1.8,1,4.3,1.4,6.1c0,0.1,0.1,0.2,0.1,0.3c0,0,0.1,0.1,0.2,0.1c0.1,0,0.1,0,0.2-0.1c0-0.1,0.1-0.2,0.1-0.2
				c-0.1-0.8-0.2-1.5-0.3-2.2c-0.1-0.9-0.3-1.8-0.5-2.7c0-0.2-0.4-1.3-0.4-1.6C-136,22.2-136.2,22.1-136.4,22.1
				C-136.4,22.1-136.4,22.1-136.4,22.1z M-134.3,21.5c0,0.1,0,0.1,0,0.2c0.1,0.6,0,1.4,0.1,2.4c0,0.3,0,0.6,0.3,0.9
				c0.1-0.1,0.2-0.1,0.3-0.2c0.1-0.1,0.1-0.3,0.1-0.4c-0.1-0.8-0.1-2.2-0.2-3c-0.1,0-0.1-0.1-0.2-0.1
				C-134.2,21.3-134.3,21.4-134.3,21.5C-134.3,21.5-134.3,21.5-134.3,21.5z M-128.7,21.1c-0.3,0.1-0.5,0.2-0.6,0.5
				c-0.6,1.7-1.2,3.4-1.8,5.1c-0.4,1.1-0.8,2.2-1.1,3.3c0.1,0.1,0.2,0.1,0.3,0.1c0.1,0,0.2,0,0.3,0c0.1-0.1,0.1-0.1,0.2-0.2
				c0-0.1,0.1-0.2,0.1-0.3c0.9-2.3,2.1-5.4,3-7.7c0.1-0.1,0.1-0.3,0.1-0.4C-128.2,21.3-128.4,21.1-128.7,21.1
				C-128.7,21.1-128.7,21.1-128.7,21.1z M-140.4,21.6c0,0.2,0.6,1.2,0.8,1.2c0.3,0,0.5-0.2,0.5-0.4c0-0.3-0.6-1.3-0.8-1.3h0
				C-140.2,21.1-140.4,21.4-140.4,21.6L-140.4,21.6z M-131.8,21.1c-0.1,0.1-0.4,1-0.4,1.1c0,0.2,0,0.3,0.2,0.4
				c0.2,0.1,0.5,0,0.6-0.2c0.1-0.2,0.1-0.4,0.1-0.4c0-0.3,0.2-1.2,0-1.3c0,0-0.1,0-0.1,0C-131.6,20.8-131.7,20.9-131.8,21.1z
				 M-83.3,21.9c-1.3,0.4-2.6,0.8-3.9,1.2c-1.4,0.4-3.3,0.7-4.6,1.4c-0.5,0.3-0.8,1.1-0.3,1.6c0.8,0.8,3.7-0.3,4.6-0.5l7.1-1.6
				c0.7-0.2,2-0.2,2.5-0.9c0.5-0.6,0.2-2,0.2-2.8C-79.5,20.7-81.5,21.3-83.3,21.9L-83.3,21.9z M-149.3,19.8c-0.3,0.3-0.4,0.7-0.1,1
				c0.5,0.5,1.1,0.9,1.7,1.4c0.1,0.1,0.2,0.1,0.4,0.1c0.1-0.1,0.3-0.2,0.4-0.3c0.1-0.1,0-0.3-0.1-0.4c-0.6-0.6-1.1-1.1-1.7-1.7
				c-0.1-0.1-0.2-0.1-0.3-0.1C-149.1,19.6-149.2,19.7-149.3,19.8z M-119.7,20.2c-0.4,0.4-0.7,0.8-1,1.2c-0.3,0.4-0.8,0.7-0.9,1.3
				l0.6,0.4c0.7-0.5,2.7-2.8,3.1-3.4c-0.1-0.3-0.2-0.6-0.6-0.6C-119.1,19.3-119.4,19.8-119.7,20.2z M-112.7,18.8
				c-0.1,0.1-0.3,0.2-0.4,0.3c-1.4,1-2.7,2-4.1,3c-0.8,0.6-1.5,1.4-2.3,2.1c0.2,0.4,0.4,0.6,0.7,0.6c0.2,0,0.5-0.1,0.7-0.2
				c0.1,0,0.2-0.1,0.3-0.2l5.7-4.1c0.2-0.1,0.3-0.2,0.4-0.3c0.2-0.2,0.3-0.5,0.1-0.8c-0.2-0.3-0.4-0.4-0.7-0.4
				C-112.4,18.7-112.6,18.8-112.7,18.8L-112.7,18.8z M-99.1,17.9c-1.9,1-3.9,1.9-5.9,2.9c-0.6,0.3-0.8,0.8-1.1,1.3
				c-0.1,0.1,0,0.3,0,0.5c1.1,0.2,2-0.1,2.8-0.6c0.2-0.1,0.3-0.2,0.5-0.2c1.5-0.7,3-1.4,4.4-2.2c0.5-0.3,0.8-0.6,0.7-1.3
				c-0.2-0.1-0.3-0.2-0.5-0.3c-0.1-0.1-0.3-0.2-0.5-0.2C-98.8,17.8-99,17.8-99.1,17.9z M-161.5,17.7c-0.1,0.4-0.1,0.6,0.3,0.9
				c0.1,0.1,0.2,0.1,0.2,0.1c1.9,1.1,3.8,2.2,5.7,3.4c0.2,0.1,0.3,0.2,0.5,0.3c0.4,0.1,0.9-0.3,0.9-0.7c-0.1-0.1-0.2-0.3-0.4-0.4
				c-0.7-0.4-1.4-0.9-2-1.3c-1.4-0.9-2.7-1.8-4.1-2.6c-0.2-0.1-0.4-0.2-0.5-0.2C-161.2,17.1-161.3,17.3-161.5,17.7z M-147,16.9
				c-0.1,0.1-0.2,0.3-0.1,0.4c0,0.4,0.2,0.7,0.5,1c1.4,1.7,2.8,3.5,4.2,5.2c0,0,0.8,1.3,0.9,1.4c0.1,0,0.3,0.1,0.4,0.1
				c0.1-0.1,0.2-0.2,0.4-0.4c-0.1-0.2-0.2-0.4-0.3-0.6c-0.6-0.8-1.9-2.8-2.6-3.6c-0.2-0.3-0.4-0.6-0.6-0.8c-0.7-0.7-1.3-1.5-1.9-2.3
				c-0.1-0.1-0.2-0.3-0.3-0.4c-0.1-0.1-0.2-0.1-0.3-0.1C-146.8,16.8-146.9,16.8-147,16.9L-147,16.9z M-115.8,16.3
				c-0.6,0.6-1.3,1.2-1.9,1.8c-0.4,0.4-0.4,0.6,0.2,1c0.1-0.1,0.3-0.2,0.5-0.3c0.6-0.5,1.2-1,1.9-1.5c0.5-0.4,0.5-0.7,0.1-1.1
				c-0.1-0.1-0.3-0.2-0.4-0.2C-115.6,16.2-115.7,16.2-115.8,16.3z M-131.4,16.1c-0.1,0.3-0.1,0.7-0.2,1c0,0.5-0.2,1.1-0.1,1.6
				c0.6,0,0.7,0,0.8-0.4c0.1-0.7,0.2-1.5,0.4-2.2c0-0.1,0-0.3,0-0.4c-0.2-0.1-0.4-0.1-0.5-0.1C-131.2,15.6-131.3,15.7-131.4,16.1z
				 M-143.8,15.2c0.2,0.5,0.4,1,0.7,1.4c0.4,0.8,0.8,1.5,1.2,2.3c0.3,0.5,0.6,1.1,0.9,1.6c0.1,0.2,0.3,0.2,0.6,0.1
				c0.2-0.1,0.2-0.3,0.1-0.5c-0.2-0.4-0.4-0.8-0.6-1.3c-0.4-0.9-1-1.7-1.3-2.6c-0.2-0.5-0.5-1-0.8-1.5c-0.1-0.1-0.3-0.2-0.4-0.2
				l-0.1,0C-143.8,14.6-143.9,14.8-143.8,15.2z M-181.4,18.9c3.7,0.8,7.4,2.1,11,3.2c0.8,0.3,3,1.5,3.6,0.4c0.7-1.3-2.2-2.2-3-2.6
				c-3.9-2.1-7.7-4.4-11.7-6.5L-181.4,18.9C-181.4,18.9-181.4,18.9-181.4,18.9z M-120.4,13c-0.1,0.1-0.1,0.2-0.2,0.3
				c-0.5,0.9-0.9,1.8-1.4,2.6c-0.6,1.1-1.3,2.1-2,3.2c-0.2,0.3-0.4,0.7-0.5,1c0,0.1,0,0.3,0.1,0.4c0.2,0.3,0.5,0.3,0.7,0
				c0.7-1.1,1.4-2.1,2.1-3.2c0.8-1.3,1.6-2.6,2.4-3.9c0.1-0.1,0.1-0.2,0.2-0.3c-0.1-0.1-0.1-0.2-0.1-0.3c-0.2-0.2-0.5-0.3-0.6-0.3
				C-120,12.5-120.2,12.6-120.4,13z M-139.2,12.1c-0.2,0-0.4,0.2-0.4,0.4c0,0.1,0,0.2,0,0.3c0.1,0.2,0.1,0.4,0.2,0.6
				c0.2,0.7,0.5,1.5,0.7,2.2c0.4,1.5,0.9,3.1,1.3,4.6c0,0.1,0.1,0.2,0.2,0.4h0.7c0-0.2,0.1-0.3,0-0.4c-0.1-0.7-0.2-1.3-0.5-2
				c-0.1-0.3-0.2-0.6-0.3-0.9c-0.1-0.5-0.2-1.1-0.4-1.6c-0.3-1.1-0.7-2.2-1.1-3.3C-138.8,12.2-138.9,12.1-139.2,12.1
				C-139.1,12.1-139.1,12.1-139.2,12.1z M-101.7,11.7c-0.4,0-0.7,0.1-1.1,0.3c-2,1.3-4,2.5-6,3.7c-0.2,0.1-0.3,0.3-0.5,0.4
				c-0.1,0.2-0.2,0.4-0.3,0.6c-0.1,0.2-0.4,0.2-0.4,0.5l0.8,0.7c0.5-0.3,1-0.5,1.5-0.8c2-1.2,4-2.4,6-3.6c0.2-0.1,0.4-0.2,0.5-0.4
				c0.3-0.2,0.3-0.7,0.2-1C-101,11.9-101.3,11.7-101.7,11.7C-101.6,11.7-101.7,11.7-101.7,11.7z M-157.7,11.5
				c-0.6,0.3-0.6,0.9-0.2,1.4c0.2,0.1,0.3,0.3,0.5,0.4c1,0.8,1.9,1.7,2.9,2.5c0.2,0.2,0.4,0.3,0.5,0.5c0.5,0.7,1.1,1,1.7,1.5
				c0.1,0.1,0.3,0.2,0.4,0.2c0.2,0.1,0.5,0,0.5-0.3c0-0.2,0-0.4-0.1-0.6c-0.1-0.2-0.2-0.3-0.4-0.4c-1.6-1.6-3.3-3.2-4.9-4.7
				c-0.2-0.2-0.3-0.3-0.5-0.4c-0.1-0.1-0.2-0.1-0.3-0.1C-157.6,11.4-157.7,11.4-157.7,11.5z M-151.9,11c-0.2,0.2-0.4,0.5-0.4,0.8
				c0,0.1,0.1,0.2,0.1,0.2c0.7,0.8,1.5,1.7,2.3,2.5c0.3,0.3,0.7,0.3,1.1,0c0.2-0.1,0.3-0.4,0.1-0.6c-0.8-1-1.7-2.1-2.5-3.1
				c-0.1-0.1-0.2-0.1-0.3-0.1C-151.7,10.8-151.8,10.9-151.9,11L-151.9,11z M-130.2,10.7c-0.2,0-0.3,0.1-0.4,0.3c0,0.1,0,0.1,0,0.2
				c-0.1,1-0.3,2-0.4,3c0,0.1,0,0.2,0,0.3c0,0.2,0.1,0.4,0.3,0.4c0.2,0,0.4,0,0.5-0.2c0.1-0.2,0.2-0.4,0.2-0.6
				c0.1-0.9,0.1-1.8,0.4-2.7c0,0,0-0.1,0-0.2c0,0,0-0.2-0.1-0.3C-129.8,10.8-129.9,10.7-130.2,10.7L-130.2,10.7L-130.2,10.7z
				 M-125.4,10.7c-0.3,0.1-0.4,0.2-0.5,0.5c-0.1,0.2-0.1,0.3-0.2,0.5c-0.2,0.5-0.3,1.1-0.5,1.6c-0.5,1.4-1,2.8-1.5,4.2
				c-0.1,0.4-0.3,0.8-0.4,1.3l1,0.1l2.9-7.9c-0.3-0.3-0.5-0.3-0.6-0.3C-125.2,10.7-125.3,10.7-125.4,10.7L-125.4,10.7z M-134.9,11
				c0,0.1,0,0.2,0,0.4l0,6c0,0.3,0,0.6,0,0.8c0,0.2,0,0.5,0.1,0.7c0,0.3,0.1,0.5,0.2,0.8c0.3,0,0.6-0.1,0.9-0.4c0-0.3,0-0.6,0-0.9
				c-0.1-2.3-0.2-4.7-0.2-7c0-0.2,0-0.4,0-0.6c0-0.2-0.2-0.4-0.4-0.4c-0.1,0-0.1,0-0.2,0C-134.7,10.4-134.9,10.6-134.9,11z
				 M-154.2,8.5c-0.4,0.3-0.4,0.7-0.1,1c0.4,0.4,0.9,0.8,1.3,1.2c0.1,0.1,0.2,0.1,0.2,0.1c0.2,0.1,0.5,0,0.7-0.2
				c0.1-0.2,0.2-0.3,0.1-0.5c-0.4-0.6-0.9-1.2-1.3-1.8c-0.1-0.1-0.2-0.1-0.3-0.2C-153.9,8.3-154.1,8.4-154.2,8.5z M-107.4,7.8
				c-1.9,1.9-3.8,3.8-5.7,5.7c-0.1,0.1-0.3,0.3-0.4,0.4c-0.3,0.4-0.2,0.7,0.3,0.8c0.1,0,0.2,0,0.3,0.1c0.4,0,0.5,0,0.8-0.3
				c0.4-0.4,0.6-0.3,1-0.6c0.1-0.1,0.7-0.7,0.8-0.7c0.7-0.5,1.1-1,1.3-1.3c0.9-0.9,1.2-0.9,2.1-1.8c0.3-0.3,0.6-0.6,0.9-0.9
				c0.2-0.2,0.3-0.5,0.1-0.8c-0.1-0.1-0.2-0.3-0.2-0.4c-0.2-0.4-0.4-0.5-0.6-0.5C-107,7.4-107.2,7.6-107.4,7.8z M-85.2,10.7
				c-2.2,1.2-4.6,2.3-6.9,3.5c-1.9,1-4.2,1.6-3.2,4.1c4.3-1,8.7-3.4,12.8-5.1c1.2-0.5,3.8-1,4.6-2.1c0.6-0.9,0.2-2.9,0.2-4
				C-80.2,7.8-82.8,9.4-85.2,10.7z M-150,4.6c-0.1,0.5,0.1,0.8,0.3,1.1c0.8,1.4,1.6,2.7,2.4,4.1c0.5,0.8,0.9,1.6,1.3,2.4
				c0.2,0.4,0.5,0.5,0.8,0.3c0.2-0.1,0.3-0.3,0.4-0.4c-0.4-0.8-0.8-1.5-1.3-2.2c-0.6-0.9-1.1-1.8-1.6-2.8c-0.4-0.9-0.8-1.9-1.6-2.6
				c0,0-0.1-0.1-0.2-0.1L-150,4.6L-150,4.6z M-181.4,7.5c0,0.7-0.1,1.6,0.2,2.2c0.5,0.8,1.9,1.2,2.8,1.7c2.3,1.2,4.6,2.3,6.9,3.6
				c1.6,0.9,3.3,1.9,5,2.5c0.7,0.3,1.6,0.3,2.2-0.3c1.3-1.5-2.4-3.5-3.3-4.2c-3-2.3-6-4.6-8.9-6.8c-1.5-1.2-3-2.7-4.8-3.5V7.5
				L-181.4,7.5z M-114.6,2.4c-1.3,2.3-2.6,4.6-4,6.9c-0.2,0.3-0.2,0.7-0.2,1c0,0.3,0.2,0.5,0.5,0.5c0.2,0,0.4-0.1,0.6-0.2
				c0.4-0.2,0.7-0.5,0.9-0.9c1.3-1.9,2.6-3.9,3.9-5.8c0.1-0.2,0.2-0.4,0.3-0.6c-0.2-0.3-0.3-0.6-0.6-0.7c-0.3-0.1-0.7-0.4-1.1-0.4
				C-114.3,2.3-114.4,2.3-114.6,2.4z M-142.8,1.4c-0.4,0.2-0.4,0.4-0.4,0.8c0,0.2,0.1,0.4,0.1,0.5c0.6,2,1.2,4,1.8,6
				c0.1,0.3,0.1,0.8,0.6,1c0.2,0,0.4-0.1,0.7-0.2c0.2-0.1,0.3-0.3,0.3-0.5c0-0.2-0.1-0.3-0.1-0.5c-0.6-2.2-1.2-4.4-1.8-6.6
				c-0.2-0.6-0.3-0.8-0.6-0.8C-142.3,1.1-142.5,1.3-142.8,1.4z M-122.2,0.7c-0.1,0.2-0.2,0.4-0.3,0.6l-1.2,3c-0.4,1-0.8,2-1.2,3
				c-0.1,0.2-0.2,0.5,0,0.7c0.2,0.2,0.5,0.3,0.8,0.3c0.3-0.1,0.5-0.2,0.6-0.4c0.1-0.1,0.1-0.3,0.2-0.4c0.8-1.9,1.7-3.8,2.5-5.6
				c0.1-0.3,0.2-0.5,0.3-0.8c-0.3-0.4-0.7-0.5-1.1-0.6c-0.1,0-0.1,0-0.2,0C-121.9,0.4-122.1,0.5-122.2,0.7z M-129.2,0
				c0,0.1,0,0.1,0,0.2c-0.3,1.6-0.5,3.2-0.8,4.9c-0.1,0.7-0.2,1.5-0.3,2.2c0,0.3,0.2,0.5,0.5,0.4c0.2-0.1,0.9-0.1,1.1-0.2
				c0.1-0.4,0.2-0.9,0.2-1.3c0.1-0.6,0.1-1.1,0.2-1.7c0.1-0.7,0.3-1.5,0.4-2.2c0.1-0.5,0.2-1.1,0.2-1.7c0-0.1,0-0.2,0-0.4
				c0-0.3-0.8-0.7-1.2-0.7h0C-128.9-0.4-129.1-0.2-129.2,0z M-134.7-1.3c-0.1,0-0.2,0-0.3,0c-0.2,0-0.3,0.2-0.3,0.4
				c0,0.3,0,0.6,0,0.8c0.1,1,0.1,1.9,0.2,2.9c0.1,1.5,0.2,3.1,0.3,4.6c0,0.2,0,0.4,0.1,0.5c0,0.2,0.3,0.3,0.5,0.3
				c0.2,0,0.3-0.1,0.4-0.4c0-0.3,0.1-0.6,0.1-0.9c0.1-2,0.3-4,0.4-5.9h0c0-0.2,0-0.4,0-0.6c0-0.2,0.1-0.4,0.1-0.6
				c0-0.6-0.1-0.9-0.7-1.1c-0.2-0.1-0.4-0.1-0.6-0.1C-134.6-1.3-134.6-1.3-134.7-1.3z M-86.8-0.1l-6,4.6c-2.1,1.7-4.3,3.3-6.4,5
				c-0.7,0.6-1.6,1.7-0.5,2.5c0.7,0.5,1.6-0.1,2.1-0.5c1.7-1.1,3.4-2.2,5-3.3c3.4-2.3,6.9-4.4,10.3-6.7c1.3-0.9,3.3-1.7,4.2-2.9
				c0.8-1,0.6-4.5,0.1-5.7C-80.9-4.8-83.8-2.4-86.8-0.1z M-181.4-9.5c0,0.7-0.1,1.6,0.2,2.3c0.8,1.6,3,2.9,4.4,4.1
				c3.2,2.9,6.2,6,9.4,8.8c1.6,1.4,3.1,3,4.8,4.3c0.7,0.5,1.6,1.2,2.4,0.5c0.7-0.6,0.1-1.5-0.4-2.1c-1.1-1.5-2.5-2.7-3.8-4.1
				c-3.2-3.6-6.7-7-9.9-10.5c-2.3-2.5-4.5-5.6-7.1-7.8L-181.4-9.5L-181.4-9.5z M-151.4-18.9c1.5,4.7,3.3,9.3,5,14
				c0.3,1,0.6,2.3,1.2,3.2c0.3,0.4,0.8,0.7,1.2,0.3c1-0.8-0.1-3.6-0.3-4.6c-0.8-4.1-2.3-8.6-2.3-12.8L-151.4-18.9L-151.4-18.9z
				 M-137.6-18.9c0.7,3.8,0.5,7.7,1,11.5c0.1,1-0.2,3,0.7,3.6c0.6,0.5,2.3,0.7,2.6-0.2c0.3-1.1,0-2.4,0.1-3.4
				c0.3-3.8,0.2-7.6,0.2-11.5H-137.6z M-126.9-18.9c-0.3,3.8-1.3,7.6-2,11.2c-0.2,1.1-1,3.3,0,4.1c1.9,1.6,2.6-1.5,3-2.8
				c1.3-4.2,2.6-8.4,3.8-12.6H-126.9z M-114.8-18.6c-1.1,0.8-1.6,3.4-2,4.6c-1.4,4-3.7,7.9-4.6,11.9c0.9,0.1,1.9,0.5,2.7-0.1
				c1.3-1,2.1-3.3,2.9-4.7c1.4-2.5,2.9-5,4.3-7.6c0.8-1.4,1.8-2.8,2.2-4.4h-3.9c-0.1,0-0.2,0-0.3,0c-0.1,0-0.2,0-0.3,0
				C-114.1-18.9-114.5-18.9-114.8-18.6z M-175.5-18.9h-4.1c0.8,2.3,3.4,4.4,5,6.2c4,4.5,8.1,9,12.1,13.5c1.3,1.5,2.6,3.2,4.1,4.6
				c0.5,0.5,1.5,1,2,0.2c0.5-0.8-0.2-1.8-0.7-2.4c-1.3-1.8-2.6-3.5-3.9-5.3c-2.9-4-5.8-7.9-8.7-11.9c-0.8-1.1-1.6-2.1-2.3-3.2
				c-0.4-0.5-0.8-1.2-1.4-1.5c-0.3-0.1-0.7-0.2-1-0.2C-174.8-18.9-175.2-18.9-175.5-18.9z M-101.4-18.7c-1.1,0.5-1.9,2.5-2.6,3.5
				c-1.9,3-3.9,6-5.7,8.9c-1,1.6-2.1,3.2-3.1,4.8c-0.3,0.6-0.8,1.3-0.3,1.9c2,2.2,4.3-1.8,5.4-3c2.7-3.3,5.3-6.7,7.9-10.1
				c1.6-2,3.5-4,4.7-6.2h-4.4c-0.3,0-0.6,0-1,0C-100.7-18.9-101.1-18.9-101.4-18.7z M-163.5-18.9h-4.4c3.7,6,8,11.6,11.9,17.4
				c0.8,1.3,3.1,5.8,5.1,3.7c0.6-0.7,0.1-1.7-0.2-2.4c-0.9-1.8-2-3.5-2.9-5.3c-1.8-3.3-3.6-6.6-5.4-9.9c-0.5-0.9-1.2-3-2.2-3.5
				c-0.3-0.1-0.7-0.2-1-0.2C-162.9-18.9-163.2-18.9-163.5-18.9L-163.5-18.9z M-82.2-18.7c-0.8,0.3-1.5,1.1-2.1,1.7l-3.2,3.2
				c-4.2,4.2-8.2,8.4-12.4,12.6c-1.7,1.7-3.3,3.4-5,5c-0.7,0.7-1.9,1.6-0.8,2.6c1.5,1.5,3,0.5,4.3-0.6c1.4-1.2,2.8-2.4,4.1-3.5
				c4.4-3.9,8.8-7.8,13.3-11.6c1.5-1.2,2.9-2.5,4.4-3.8c0.7-0.6,1.6-1.2,1.9-2.1c0.4-1.1,0.1-2.5,0.1-3.7c-0.8,0-1.8-0.1-2.7-0.1
				C-81-19-81.7-18.9-82.2-18.7z"/>
		</g>
	</mask>
	
		<radialGradient id="SVGID_1_" cx="-799.1411" cy="54.9249" r="0.5171" gradientTransform="matrix(104.621 0 0 104.6212 83477.4453 -5709.2246)" gradientUnits="userSpaceOnUse">
		<stop  offset="0" style="stop-color:#8E7D31"/>
		<stop  offset="0.5086" style="stop-color:#8E7D31"/>
		<stop  offset="1" style="stop-color:#2A2E76"/>
	</radialGradient>
	<path class="st2" d="M-181.8-19h104.6V93.2h-104.6V-19z"/>
</g>
<path class="st3" d="M112.5,45.6h4.3l9.1,35.5l8.6-35.5h4.4l-11.1,40.8h-3.9L112.5,45.6z M143.7,45.6h20v3.5h-16v14.4h15.1v3.4
	h-15.1V83h16v3.4h-20V45.6z M170.1,45.6h9.9c3.6,0,6.5,0.8,8.6,2.4c2.2,1.6,3.3,4.1,3.3,7.4c0,2.5-0.7,4.7-2.1,6.5
	c-1.4,1.8-3.5,3.2-6.4,4.2c2,0.5,3.5,1.4,4.4,2.6c1,1.2,1.7,3.1,2.2,5.5l2.4,12.1h-4.3l-1.6-9.8c-0.5-3.1-1.4-5.4-2.7-6.8
	c-1.3-1.4-3.1-2.1-5.4-2.1H174v18.7h-3.9V45.6L170.1,45.6z M174,49.2v15.3h4.1c2.9,0,5.3-0.8,7.1-2.3c1.8-1.5,2.7-3.6,2.7-6.2
	c0-2.3-0.6-4-1.9-5.1c-1.3-1.1-3.2-1.7-5.8-1.7C180.2,49.2,174,49.2,174,49.2z M197.3,45.6h9.6c4.8,0,8.5,1.8,10.8,5.3
	c2.4,3.5,3.6,8.7,3.6,15.4c0,3.8-0.5,7.3-1.6,10.5c-1.1,3.2-2.8,5.6-5,7.2c-2.3,1.6-4.8,2.4-7.8,2.4h-9.6L197.3,45.6L197.3,45.6z
	 M201.4,49.2v33.8h5.5c3.6,0,6.2-1.5,7.8-4.5c1.6-3,2.4-7.4,2.4-13.4c0-5.2-0.8-9.1-2.5-11.8c-1.6-2.7-4.2-4.1-7.7-4.1L201.4,49.2
	L201.4,49.2z M233.3,45.6h3.9l11.3,40.8h-4.4l-3.4-14.1h-10.8l-3.4,14.1h-4.3L233.3,45.6z M235.2,50.6L230.7,69h9.1L235.2,50.6z
	 M252.5,45.6h9.6c4.8,0,8.5,1.8,10.8,5.3c2.4,3.5,3.6,8.7,3.6,15.4c0,3.8-0.5,7.3-1.6,10.5c-1.1,3.2-2.8,5.6-5,7.2
	c-2.3,1.6-4.9,2.4-7.8,2.4h-9.6L252.5,45.6L252.5,45.6z M256.5,49.2v33.8h5.5c3.6,0,6.2-1.5,7.8-4.5c1.6-3,2.4-7.4,2.4-13.4
	c0-5.2-0.8-9.1-2.5-11.8c-1.7-2.7-4.2-4.1-7.7-4.1L256.5,49.2L256.5,49.2L256.5,49.2z M121.3,40.1c-0.8,0.5-1.6,0.7-2.3,0.7
	c-0.9,0-1.6-0.3-2.2-0.8c-0.6-0.5-1.1-1.3-1.4-2.2c-0.3-1-0.4-2-0.4-3c0-1.8,0.4-3.2,1.1-4.3c0.7-1.1,1.8-1.7,3-1.7
	c0.7,0,1.5,0.2,2.2,0.7v1.4c-0.8-0.7-1.5-1-2.2-1c-0.9,0-1.6,0.4-2.2,1.3c-0.5,0.9-0.8,2.2-0.8,3.8c0,1.4,0.3,2.5,0.8,3.4
	c0.5,0.9,1.2,1.4,2.1,1.4c0.7,0,1.4-0.3,2.3-1L121.3,40.1L121.3,40.1L121.3,40.1z M130.9,28.8c1.2,0,2.1,0.5,2.9,1.6
	c0.7,1.1,1.1,2.6,1.1,4.6c0,1.8-0.4,3.2-1.1,4.2c-0.8,1.1-1.7,1.6-2.9,1.6c-1.2,0-2.1-0.5-2.9-1.6c-0.7-1-1.1-2.5-1.1-4.3
	c0-1.9,0.4-3.4,1.1-4.5C128.7,29.3,129.7,28.8,130.9,28.8 M131,29.8c-1,0-1.7,0.5-2.2,1.4c-0.5,0.9-0.7,2.2-0.7,3.7
	c0,1.5,0.2,2.6,0.7,3.5c0.5,0.9,1.2,1.3,2,1.3c0.9,0,1.6-0.4,2-1.3c0.5-0.9,0.7-2.1,0.7-3.6c0-1.7-0.3-2.9-0.8-3.7
	C132.4,30.2,131.7,29.8,131,29.8 M143.5,28.8l2.6,6.6l2.6-6.6h1.4v12H149v-7.7l0-2c0-0.2,0-0.6,0-1.1c-0.2,0.9-0.5,1.7-0.8,2.5
	l-2.1,5.4l-1.8-4.6c-0.3-0.9-0.8-2-1.2-3.3c0.1,2.6,0.1,4,0.1,4.3v6.3h-1.1v-12H143.5z M157.3,28.8h1.6v12h-1.6V28.8z M165.3,38.4
	c0.6,0.5,1.1,0.8,1.5,1c0.4,0.2,0.8,0.3,1.2,0.3c0.6,0,1.2-0.2,1.7-0.6c0.5-0.4,0.8-1,0.8-1.7c0-0.5-0.2-1-0.5-1.3
	c-0.3-0.3-1-0.7-1.9-1c-1.8-0.7-2.8-1.7-2.8-3c0-0.9,0.3-1.6,1-2.2c0.7-0.6,1.4-0.9,2.4-0.9c0.8,0,1.5,0.3,2.3,0.8v1.5
	c-0.5-0.5-0.9-0.8-1.3-0.9c-0.3-0.2-0.7-0.3-1-0.3c-0.6,0-1.1,0.2-1.5,0.6c-0.4,0.4-0.6,0.9-0.6,1.4c0,0.5,0.2,1,0.5,1.3
	c0.4,0.3,1,0.7,2,1c0.6,0.2,1,0.4,1.4,0.7c0.4,0.2,0.6,0.5,0.9,1c0.2,0.4,0.4,0.9,0.4,1.4c0,1-0.4,1.8-1.1,2.5c-0.7,0.7-1.6,1-2.6,1
	c-0.9,0-1.8-0.3-2.7-1L165.3,38.4L165.3,38.4z M178.1,28.8h1.6v12h-1.6V28.8z M190.9,28.7c1.2,0,2.1,0.5,2.9,1.6
	c0.7,1.1,1.1,2.6,1.1,4.6c0,1.8-0.4,3.2-1.1,4.3c-0.8,1.1-1.7,1.6-2.9,1.6c-1.2,0-2.1-0.5-2.9-1.6c-0.7-1.1-1.1-2.5-1.1-4.4
	c0-1.9,0.4-3.4,1.1-4.5C188.7,29.2,189.7,28.7,190.9,28.7z M191,29.7c-1,0-1.7,0.5-2.2,1.4c-0.5,1-0.7,2.2-0.7,3.8
	c0,1.5,0.2,2.6,0.7,3.5c0.5,0.9,1.2,1.3,2,1.3c0.9,0,1.5-0.4,2-1.3c0.5-0.9,0.7-2.1,0.7-3.7c0-1.7-0.3-2.9-0.8-3.8
	C192.4,30.1,191.7,29.7,191,29.7L191,29.7z M191.4,25.6h1.3l-1.9,2.5h-0.7L191.4,25.6z M202.4,28.8l3.4,8l0.9,2.1
	c0-1.1-0.1-2.2-0.1-3.3v-6.8h1v12h-1.1l-3.3-7.7c-0.2-0.5-0.4-0.9-0.5-1.4l-0.4-1.1c0,0.2,0,0.4,0,0.4l0,0.9l0,1.3l0,0.5v7h-1v-12
	H202.4z M221.3,28.8h2.9c1.5,0,2.5,0.5,3.3,1.6s1.1,2.6,1.1,4.5c0,1.1-0.2,2.1-0.5,3.1c-0.3,0.9-0.8,1.6-1.5,2.1
	c-0.7,0.5-1.5,0.7-2.3,0.7h-2.9V28.8L221.3,28.8z M222.5,29.9v9.9h1.7c1.1,0,1.9-0.4,2.3-1.3c0.5-0.9,0.7-2.2,0.7-3.9
	c0-1.5-0.2-2.7-0.7-3.5c-0.5-0.8-1.3-1.2-2.3-1.2C224.2,29.8,222.5,29.8,222.5,29.9z M234.9,28.8h5.6v1H236V34h4.2v1H236v4.8h4.5v1
	h-5.6V28.8z M254.9,28.8h1.2v11h4.4v1h-5.6V28.8z M269.5,28.8h1.2l3.4,12h-1.3l-1-4.1h-3.3l-1,4.1h-1.3L269.5,28.8z M270.1,30.3
	l-1.4,5.4h2.8L270.1,30.3L270.1,30.3z"/>
</svg>
