<?xml version="1.0" standalone="no"?>
<!DOCTYPE svg PUBLIC "-//W3C//DTD SVG 20010904//EN"
 "http://www.w3.org/TR/2001/REC-SVG-20010904/DTD/svg10.dtd">
<svg version="1.0" xmlns="http://www.w3.org/2000/svg"
 width="176.000000pt" height="176.000000pt" viewBox="0 0 176.000000 176.000000"
 preserveAspectRatio="xMidYMid meet">
<metadata>
Created by potrace 1.11, written by Peter Selinger 2001-2013
</metadata>
<g transform="translate(0.000000,176.000000) scale(0.100000,-0.100000)"
fill="#000000" stroke="none">
<path d="M878 1708 c-9 -24 -35 -87 -57 -141 -23 -54 -41 -107 -41 -117 0 -22
26 -33 49 -20 15 7 151 291 151 314 0 3 -19 6 -43 6 -41 0 -43 -2 -59 -42z"/>
<path d="M593 1703 c-46 -16 -47 -17 -63 -143 -13 -105 -14 -100 25 -100 20 0
38 6 40 13 6 14 44 241 42 243 -1 1 -21 -5 -44 -13z"/>
<path d="M1167 1504 c-68 -120 -86 -160 -81 -179 7 -28 29 -32 60 -11 19 13
204 277 204 290 0 7 -77 56 -87 56 -5 -1 -47 -70 -96 -156z"/>
<path d="M311 1536 c-18 -19 -21 -30 -15 -65 5 -30 11 -41 24 -41 19 0 30 36
30 96 0 40 -9 42 -39 10z"/>
<path d="M1452 1257 c-67 -67 -122 -125 -122 -129 0 -4 9 -12 20 -18 29 -15
85 20 189 119 l85 80 -19 35 c-11 20 -22 36 -25 36 -3 0 -60 -55 -128 -123z"/>
<path d="M294 1305 c-3 -8 -4 -104 -2 -214 3 -206 8 -231 44 -217 16 6 16 23
10 219 -7 204 -11 226 -39 227 -4 0 -10 -7 -13 -15z"/>
<path d="M507 1293 c-2 -5 -10 -45 -17 -91 -9 -62 -10 -86 -1 -95 18 -18 34 6
42 65 12 88 11 128 -5 128 -8 0 -17 -3 -19 -7z"/>
<path d="M727 1258 c-34 -97 -117 -340 -117 -344 0 -2 10 -4 23 -4 21 0 29 18
90 188 37 103 67 190 67 195 0 4 -11 7 -24 7 -20 0 -27 -8 -39 -42z"/>
<path d="M83 1199 c-7 -18 -9 -37 -5 -43 4 -6 27 -83 52 -171 34 -120 50 -161
63 -163 23 -5 22 16 -4 108 -31 111 -89 300 -92 300 -1 0 -8 -14 -14 -31z"/>
<path d="M1007 1198 c-8 -13 -35 -59 -59 -103 -25 -44 -68 -118 -97 -164 -28
-47 -50 -90 -48 -95 14 -42 61 18 216 274 48 78 50 86 35 97 -24 18 -31 16
-47 -9z"/>
<path d="M1617 1085 c-37 -25 -71 -53 -74 -63 -4 -9 -11 -20 -17 -24 -7 -5 -4
-14 9 -28 l20 -20 82 47 c76 42 82 48 77 72 -11 49 -15 61 -22 61 -4 -1 -38
-21 -75 -45z"/>
<path d="M464 1036 c-10 -43 -9 -119 2 -123 15 -5 23 18 31 89 5 49 3 58 -10
58 -9 0 -19 -11 -23 -24z"/>
<path d="M1175 980 c-53 -53 -58 -62 -44 -75 13 -13 22 -9 77 36 34 27 62 56
62 62 0 13 -19 37 -30 37 -3 0 -32 -27 -65 -60z"/>
<path d="M1279 835 c-57 -42 -132 -101 -167 -132 -57 -50 -62 -57 -48 -71 22
-22 42 -11 218 116 129 93 148 110 146 132 -5 45 -38 35 -149 -45z"/>
<path d="M1007 809 c-57 -68 -66 -84 -55 -96 11 -14 23 -5 86 62 41 44 72 85
70 94 -7 36 -36 19 -101 -60z"/>
<path d="M440 784 c-12 -31 -13 -64 -2 -64 18 0 32 26 32 57 0 39 -17 43 -30
7z"/>
<path d="M40 762 c0 -27 15 -52 32 -52 13 0 9 43 -6 63 -19 24 -26 21 -26 -11z"/>
<path d="M320 713 c0 -81 13 -124 26 -90 9 24 -5 167 -17 167 -5 0 -9 -35 -9
-77z"/>
<path d="M575 780 c-6 -10 -83 -225 -128 -357 -19 -58 -18 -90 2 -67 13 14
161 397 161 417 0 18 -25 24 -35 7z"/>
<path d="M1707 763 c-4 -3 -7 -13 -7 -22 1 -13 3 -13 11 2 11 19 8 33 -4 20z"/>
<path d="M208 738 c-6 -17 61 -311 74 -323 15 -15 2 111 -25 229 -20 91 -39
126 -49 94z"/>
<path d="M722 708 c5 -15 28 -18 29 -3 0 6 -7 12 -17 13 -10 3 -15 -1 -12 -10z"/>
<path d="M1475 671 c-120 -59 -275 -152 -289 -173 -5 -8 -6 -23 -3 -32 6 -14
38 0 209 85 228 114 242 123 227 150 -14 28 -34 24 -144 -30z"/>
<path d="M421 668 c-8 -22 -31 -216 -31 -257 1 -42 20 23 41 137 15 89 19 126
11 134 -8 8 -14 4 -21 -14z"/>
<path d="M100 641 c0 -17 29 -86 91 -216 28 -61 66 -112 74 -103 6 6 -46 136
-101 257 -34 76 -64 105 -64 62z"/>
<path d="M620 558 c-98 -153 -125 -201 -109 -196 23 7 209 260 209 285 0 7 -8
13 -17 13 -12 0 -41 -37 -83 -102z"/>
<path d="M808 598 c-37 -40 -46 -58 -30 -58 10 0 92 83 92 93 0 18 -27 3 -62
-35z"/>
<path d="M331 485 c-1 -96 6 -138 20 -129 10 6 0 168 -12 199 -5 12 -8 -15 -8
-70z"/>
<path d="M948 559 c-21 -12 -24 -39 -4 -39 7 0 19 7 26 15 17 21 1 37 -22 24z"/>
<path d="M736 511 c-4 -7 -5 -15 -2 -18 9 -9 19 4 14 18 -4 11 -6 11 -12 0z"/>
<path d="M830 472 c-104 -71 -170 -124 -170 -138 0 -19 20 -17 51 4 146 96
199 138 199 159 0 22 -22 15 -80 -25z"/>
<path d="M621 406 c-49 -49 -69 -76 -61 -81 12 -7 121 91 141 127 23 42 -14
21 -80 -46z"/>
<path d="M935 384 c-134 -73 -154 -89 -139 -104 7 -7 53 9 149 54 75 35 142
69 148 75 12 12 -8 41 -27 41 -6 0 -65 -30 -131 -66z"/>
<path d="M1435 350 c-152 -33 -165 -39 -147 -67 6 -10 27 -9 97 3 70 12 96 21
118 42 26 25 35 43 20 41 -5 -1 -44 -9 -88 -19z"/>
<path d="M336 291 c-4 -6 -3 -18 2 -27 8 -15 10 -14 16 2 8 20 -8 42 -18 25z"/>
<path d="M397 278 c-4 -12 -4 -24 -2 -27 7 -7 34 32 29 41 -9 15 -22 8 -27
-14z"/>
<path d="M490 285 c-9 -11 -10 -19 -3 -26 7 -7 14 -5 23 6 9 11 10 19 3 26 -7
7 -14 5 -23 -6z"/>
<path d="M708 278 c-29 -10 -39 -38 -13 -38 25 0 65 23 65 37 0 15 -14 16 -52
1z"/>
<path d="M1144 279 c-10 -17 13 -36 27 -22 12 12 4 33 -11 33 -5 0 -12 -5 -16
-11z"/>
<path d="M952 265 c-103 -14 -185 -41 -179 -59 6 -15 88 -12 219 9 103 17 137
32 123 55 -8 12 -42 11 -163 -5z"/>
<path d="M550 260 c0 -5 5 -10 10 -10 6 0 10 5 10 10 0 6 -4 10 -10 10 -5 0
-10 -4 -10 -10z"/>
<path d="M437 226 c-3 -8 -3 -17 0 -20 7 -7 33 13 33 25 0 15 -27 10 -33 -5z"/>
<path d="M600 220 c0 -5 7 -10 16 -10 8 0 12 5 9 10 -3 6 -10 10 -16 10 -5 0
-9 -4 -9 -10z"/>
<path d="M524 200 c-47 -19 -36 -48 10 -30 14 5 26 16 26 25 0 17 -5 18 -36 5z"/>
<path d="M645 180 c-3 -5 1 -10 9 -10 9 0 16 5 16 10 0 6 -4 10 -9 10 -6 0
-13 -4 -16 -10z"/>
<path d="M813 143 c-24 -3 -33 -9 -33 -22 0 -17 10 -18 100 -17 97 1 130 11
116 35 -7 11 -112 13 -183 4z"/>
<path d="M1035 140 c-13 -22 9 -30 80 -30 82 0 105 6 105 26 0 11 -20 14 -89
14 -50 0 -93 -4 -96 -10z"/>
<path d="M594 129 c-10 -16 9 -24 58 -24 33 0 44 4 46 18 3 14 -4 17 -47 17
-27 0 -53 -5 -57 -11z"/>
</g>
</svg>
